<svg width="35" height="35" viewBox="0 0 35 35" fill="none" xmlns="http://www.w3.org/2000/svg">
<path d="M17.5 0.5C26.8727 0.5 34.5 8.1254 34.5 17.499C34.4999 26.8726 26.8726 34.498 17.5 34.498C8.12738 34.498 0.500062 26.8726 0.5 17.499C0.5 8.1254 8.12734 0.5 17.5 0.5ZM17.5 0.666016C8.21789 0.666016 0.667969 8.217 0.667969 17.499C0.668031 26.781 8.21793 34.332 17.5 34.332C26.7821 34.332 34.332 26.781 34.332 17.499C34.332 8.217 26.7821 0.666016 17.5 0.666016Z" fill="#142537" stroke="white"/>
<path d="M18.4067 8.30469C17.0505 8.30469 16.0773 8.60797 15.4878 9.39355C14.9302 10.1368 14.8159 11.1967 14.8159 12.417V14.7686C14.8159 14.7972 14.8146 14.8191 14.813 14.8359C14.8128 14.8383 14.8113 14.8407 14.811 14.8428C14.8095 14.8435 14.8087 14.846 14.8071 14.8467C14.7971 14.8508 14.7858 14.8526 14.7749 14.8525H12.6343V17.9609H14.7749C14.787 17.961 14.7914 17.9638 14.7915 17.9639C14.7919 17.964 14.7931 17.9643 14.7954 17.9668C14.8005 17.9725 14.8169 17.9958 14.8169 18.0439V26.7295H18.0259V26.2295L18.0269 18.0439C18.0269 18.0217 18.0355 18.0001 18.0513 17.9844C18.067 17.9687 18.0886 17.96 18.1108 17.96H21.2739V14.8516H18.1089C18.098 14.8516 18.0867 14.8499 18.0767 14.8457C18.0667 14.8415 18.058 14.8348 18.0503 14.8271C18.0426 14.8195 18.0359 14.8108 18.0317 14.8008C18.0276 14.7907 18.0259 14.7794 18.0259 14.7686L18.0298 12.6992V12.6982C18.0298 12.223 18.0748 11.9086 18.2202 11.7041C18.3364 11.5408 18.6039 11.336 19.3667 11.3359L20.2349 11.3691V11.3887H20.7358L20.7456 10.8887H21.2349V8.30469H18.4067ZM12.5425 14.7363L12.5405 14.7217L12.5552 14.7246H14.7251V12.418C14.7251 11.1812 14.8506 10.1227 15.3433 9.37793C15.8028 8.68332 16.6583 8.15833 18.4028 8.17578H21.353L21.3647 8.17383L21.3638 8.1875V11.5254C21.3595 11.5259 21.355 11.5267 21.3501 11.5273C21.3263 11.5303 21.2952 11.5362 21.2603 11.542H19.3608C19.2923 11.5378 19.2309 11.5323 19.1733 11.5273C19.1156 11.5223 19.0518 11.5168 18.9956 11.5137C18.9078 11.5088 18.7048 11.4964 18.5161 11.6045C18.2969 11.7303 18.218 11.9397 18.1821 12.0645C18.1462 12.1893 18.1219 12.3496 18.0972 12.5127L18.0913 12.5488V12.5859L18.0874 14.2236L18.0864 14.7246H21.353L21.3667 14.7217L21.3647 14.7363V18.0771L21.3667 18.0908L21.353 18.0898H18.0913V18.5898L18.0884 26.7744V26.8203H14.7427L14.7231 26.8223L14.7251 26.8057V18.0898H12.5552L12.5405 18.0908L12.5425 18.0771V14.7363Z" fill="#36465A" stroke="white"/>
</svg>
