<svg width="35" height="35" viewBox="0 0 35 35" fill="none" xmlns="http://www.w3.org/2000/svg">
<path d="M19.0918 18.4336L19.0264 18.3398C19.0247 18.3314 19.0223 18.3195 19.0205 18.3037C19.0136 18.2443 19.0123 18.1565 19.0283 18.0518C19.0601 17.8435 19.1532 17.5935 19.3574 17.3721L19.3584 17.373C19.646 17.0623 20.0866 16.8721 20.7441 16.8721C21.3146 16.8721 21.7226 17.0406 21.9854 17.293C22.2458 17.5432 22.416 17.926 22.416 18.46V25.6406H25.6826V18.2188C25.6826 16.2178 24.868 15.0587 23.8633 14.4287C22.8979 13.8236 21.8254 13.7491 21.3379 13.749C20.2904 13.749 19.7175 14.2035 19.2617 14.5625L19.1094 14.6807L19.1064 14.6826C19.0945 14.692 19.0795 14.6976 19.0645 14.6992C19.0495 14.7007 19.034 14.6981 19.0205 14.6914C19.007 14.6847 18.9952 14.674 18.9873 14.6611C18.9795 14.6483 18.9755 14.6332 18.9756 14.6182V13.748H15.8848V25.6406H19.0918V18.4336ZM15.8184 13.6348H19.1084L19.1338 13.6289C19.1353 13.6321 19.1375 13.6355 19.1387 13.6396L19.3086 14.2461L19.8604 13.9424C20.2224 13.7434 20.6881 13.5821 21.3359 13.582C22.4043 13.582 23.5326 13.8947 24.3701 14.6094C25.1906 15.3097 25.7857 16.4409 25.7324 18.2021V25.7314H22.3643V18.4141L22.3564 18.3701C22.2883 17.9946 22.1479 17.6334 21.8438 17.377C21.5391 17.1202 21.1523 17.0372 20.7432 17.0371C20.2685 17.0371 19.7942 17.1443 19.4795 17.4844L19.4785 17.4863C19.286 17.6961 19.2056 17.9384 19.1709 18.1055C19.153 18.1918 19.1459 18.2678 19.1426 18.3242C19.1409 18.3526 19.1396 18.3776 19.1396 18.3975L19.1406 18.4141L19.1416 25.6699C19.1415 25.6941 19.1316 25.7115 19.1211 25.7217C19.116 25.7266 19.1111 25.7291 19.1074 25.7305C19.1043 25.7316 19.1001 25.7329 19.0928 25.7324L19.0752 25.7314H15.8184V13.6348Z" fill="#36465A" stroke="white"/>
<path d="M12.0425 8.14062C12.9908 8.14062 13.7621 8.91202 13.7622 9.86035C13.7622 10.8088 12.9909 11.5801 12.0425 11.5801C11.0941 11.5799 10.3228 10.8087 10.3228 9.86035C10.3229 8.9121 11.0942 8.14076 12.0425 8.14062ZM12.0425 8.30664C11.1859 8.30677 10.4889 9.00376 10.4888 9.86035C10.4888 10.7171 11.1858 11.4149 12.0425 11.415C12.8993 11.415 13.5972 10.7171 13.5972 9.86035C13.597 9.00368 12.8992 8.30664 12.0425 8.30664Z" fill="#36465A" stroke="white"/>
<path d="M10.4448 25.6416H13.6343V13.749H10.4448V25.6416ZM10.3599 13.6221L10.3501 13.584L10.3618 13.582H13.6011C13.623 13.582 13.6441 13.591 13.6597 13.6064C13.6752 13.622 13.6841 13.6431 13.6841 13.665V25.6709C13.684 25.6949 13.6749 25.7124 13.6646 25.7227C13.6594 25.7276 13.6545 25.731 13.6509 25.7324C13.6477 25.7336 13.6429 25.7339 13.6353 25.7334L13.6187 25.7324H10.3599V13.6221Z" fill="#36465A" stroke="white"/>
<path d="M17.5 0.5C26.8743 0.5 34.5 8.12571 34.5 17.5C34.5 26.8743 26.8743 34.5 17.5 34.5C8.12571 34.5 0.5 26.8743 0.5 17.5C0.5 8.12571 8.12571 0.5 17.5 0.5ZM17.5 0.666016C8.21737 0.666016 0.666016 8.21737 0.666016 17.5C0.666016 26.7826 8.21737 34.334 17.5 34.334C26.7826 34.334 34.334 26.7826 34.334 17.5C34.334 8.21737 26.7826 0.666016 17.5 0.666016Z" fill="#142537" stroke="white"/>
</svg>
