<svg width="35" height="35" viewBox="0 0 35 35" fill="none" xmlns="http://www.w3.org/2000/svg">
<path d="M17.5 0.5C26.8727 0.5 34.5 8.1254 34.5 17.499C34.4999 26.8726 26.8726 34.498 17.5 34.498C8.12738 34.498 0.500062 26.8726 0.5 17.499C0.5 8.1254 8.12734 0.5 17.5 0.5ZM17.5 0.666016C8.21789 0.666016 0.667969 8.217 0.667969 17.499C0.668031 26.781 8.21793 34.332 17.5 34.332C26.7821 34.332 34.332 26.781 34.332 17.499C34.332 8.217 26.7821 0.666016 17.5 0.666016Z" fill="#142537" stroke="white"/>
<path d="M17.4614 11.4121C19.6065 11.4121 21.1948 11.4613 22.3784 11.623C23.5675 11.7856 24.2749 12.0534 24.7202 12.4336C25.1495 12.8002 25.4032 13.3303 25.5415 14.1904C25.682 15.0643 25.6929 16.2017 25.6929 17.7227C25.6929 19.2434 25.682 20.3801 25.5415 21.2539C25.4032 22.1141 25.1496 22.6441 24.7202 23.0107C24.2749 23.391 23.5675 23.6588 22.3784 23.8213C21.1948 23.9831 19.6065 24.0322 17.4614 24.0322C15.3165 24.0322 13.7289 23.983 12.5454 23.8213C11.3563 23.6588 10.649 23.3909 10.2036 23.0107C9.77427 22.6441 9.52067 22.1141 9.38232 21.2539C9.24183 20.3801 9.23096 19.2434 9.23096 17.7227C9.23096 16.2017 9.24182 15.0643 9.38232 14.1904C9.52068 13.3303 9.77428 12.8002 10.2036 12.4336C10.649 12.0534 11.3563 11.7856 12.5454 11.623C13.7289 11.4613 15.3165 11.4121 17.4614 11.4121Z" stroke="white"/>
</svg>
