<svg width="15" height="17" viewBox="0 0 15 17" fill="none" xmlns="http://www.w3.org/2000/svg">
<path d="M9.41753 12.8652V13.4421C9.41753 14.0542 9.1744 14.6411 8.74163 15.0739C8.30887 15.5067 7.72191 15.7498 7.10989 15.7498C6.49786 15.7498 5.9109 15.5067 5.47814 15.0739C5.04537 14.6411 4.80225 14.0542 4.80225 13.4421V12.8652" stroke="#566370" stroke-width="1.5" stroke-linecap="round" stroke-linejoin="round"/>
<path d="M13.2999 11.6907C12.3739 10.5575 11.7202 9.98056 11.7202 6.85623C11.7202 3.99512 10.2592 2.97579 9.05671 2.48073C8.89698 2.41511 8.74662 2.26439 8.69794 2.10033C8.48701 1.38244 7.89568 0.75 7.10964 0.75C6.3236 0.75 5.7319 1.3828 5.52313 2.10105C5.47446 2.26691 5.3241 2.41511 5.16437 2.48073C3.96043 2.97651 2.50084 3.99224 2.50084 6.85623C2.49904 9.98056 1.84533 10.5575 0.91939 11.6907C0.535745 12.1602 0.871795 12.8651 1.54281 12.8651H12.6801C13.3475 12.8651 13.6814 12.158 13.2999 11.6907Z" stroke="#566370" stroke-width="1.5" stroke-linecap="round" stroke-linejoin="round"/>
</svg>
