<svg width="80" height="80" viewBox="0 0 80 80" fill="none" xmlns="http://www.w3.org/2000/svg">
<path d="M42.5254 37.4746H55.1524V73.7773H42.5254V37.4746Z" fill="#FFDE55"/>
<path d="M60.2036 31.1602H72.8307V73.7764H60.2036V31.1602Z" fill="#FF4768"/>
<path d="M42.5254 57.0105V73.7787H55.1524V50.877C51.2738 53.088 47.0423 55.1537 42.5254 57.0105Z" fill="#FFDE55"/>
<path d="M60.2036 47.7848V73.7773H72.8307V37.2891C69.5338 40.902 65.2591 44.4619 60.2036 47.7848Z" fill="#FF4768"/>
<path d="M78.8281 73.7773V78.8281H1.17188V73.7773H78.8281Z" fill="#FF4768"/>
<path d="M70.3047 1.17188H57.6777V6.22266H64.2078L50.9495 19.4811H40.4733C39.7655 19.4811 39.09 19.7781 38.6117 20.3L23.7364 36.5275H7.01172V41.5783H24.8473C25.5552 41.5783 26.2306 41.2812 26.7089 40.7594L41.5842 24.5319H51.9955C52.6653 24.5319 53.3075 24.2658 53.7812 23.7922L67.7792 9.79422V16.3244H72.83V3.69734C72.8302 2.3025 71.6994 1.17188 70.3047 1.17188Z" fill="#FF4768"/>
<path d="M78.8281 72.6059H74.0016V54.323C74.0016 53.6759 73.4769 53.1512 72.8297 53.1512C72.1825 53.1512 71.6578 53.6759 71.6578 54.323V72.6059H61.375V32.334H71.6578V48.8543C71.6578 49.5015 72.1825 50.0262 72.8297 50.0262C73.4769 50.0262 74.0016 49.5015 74.0016 48.8543V31.1621C74.0016 30.5149 73.4769 29.9902 72.8297 29.9902H60.2031C59.5559 29.9902 59.0312 30.5149 59.0312 31.1621V72.6059H56.3244V37.4757C56.3244 36.8285 55.7997 36.3038 55.1525 36.3038H42.5255C41.8783 36.3038 41.3536 36.8285 41.3536 37.4757V72.6059H38.6466V46.946C38.6466 46.2988 38.1219 45.7741 37.4747 45.7741H24.8477C24.2005 45.7741 23.6758 46.2988 23.6758 46.946V72.6059H20.9688V54.5223C20.9688 53.8751 20.4441 53.3504 19.7969 53.3504H7.16969C6.5225 53.3504 5.99781 53.8751 5.99781 54.5223V72.6059H1.17188C0.524687 72.6059 0 73.1306 0 73.7777V78.8293C0 79.4765 0.524687 80.0012 1.17188 80.0012H13.8281C14.4753 80.0012 15 79.4765 15 78.8293C15 78.1821 14.4753 77.6574 13.8281 77.6574H2.34375V74.9496H77.6562V77.6574H19.2969C18.6497 77.6574 18.125 78.1821 18.125 78.8293C18.125 79.4765 18.6497 80.0012 19.2969 80.0012H78.8281C79.4753 80.0012 80 79.4765 80 78.8293V73.7777C80 73.1306 79.4753 72.6059 78.8281 72.6059ZM43.6973 38.6476H53.9806V72.6059H43.6973V38.6476ZM26.0194 48.1179H36.3027V72.6059H26.0194V48.1179ZM8.34156 55.6941H18.6248V72.6059H8.34156V55.6941Z" fill="#142537"/>
<path d="M7.0127 42.75H24.8471C25.8818 42.75 26.8755 42.313 27.5735 41.5513L42.1 25.7031H51.9955C52.9835 25.7031 53.9121 25.3188 54.61 24.6208L66.608 12.6228V16.3248C66.608 16.972 67.1327 17.4967 67.7799 17.4967H72.8299C73.4771 17.4967 74.0018 16.972 74.0018 16.3248V3.69688C74.0018 1.65844 72.3433 0 70.3049 0H57.6783C57.0311 0 56.5064 0.524687 56.5064 1.17188V6.22344C56.5064 6.87063 57.0311 7.39531 57.6783 7.39531H61.3789L50.4649 18.3094H40.4736C39.44 18.3094 38.4468 18.7464 37.7489 19.508L23.2207 35.3563H19.9893C19.3421 35.3563 18.8174 35.8809 18.8174 36.5281C18.8174 37.1753 19.3421 37.7 19.9893 37.7H23.7361C24.0646 37.7 24.378 37.5622 24.5999 37.32L39.4766 21.0917C39.7319 20.8131 40.0952 20.6533 40.4735 20.6533H50.95C51.2608 20.6533 51.5589 20.5298 51.7786 20.31L65.0364 7.05219C65.3716 6.71703 65.4719 6.21297 65.2905 5.77516C65.1091 5.33719 64.6818 5.05172 64.2078 5.05172H58.85V2.34375H70.3047C71.0508 2.34375 71.6579 2.95078 71.6579 3.69688V15.1531H68.9516V9.79375C68.9516 9.31984 68.6661 8.8925 68.2282 8.71109C67.7905 8.53 67.2861 8.63 66.9511 8.96516L52.9529 22.9634C52.6975 23.2188 52.3574 23.3594 51.9955 23.3594H41.5846C41.256 23.3594 40.9427 23.4972 40.7207 23.7394L25.8455 39.9677C25.5902 40.2464 25.2263 40.4062 24.8471 40.4062H8.18457V37.7H14.5205C15.1677 37.7 15.6924 37.1753 15.6924 36.5281C15.6924 35.8809 15.1677 35.3563 14.5205 35.3563H7.0127C6.36551 35.3563 5.84082 35.8809 5.84082 36.5281V41.5781C5.84082 42.2253 6.36551 42.75 7.0127 42.75Z" fill="#142537"/>
</svg>
