<svg width="18" height="15" viewBox="0 0 18 15" fill="none" xmlns="http://www.w3.org/2000/svg">
<path d="M0.749998 3.16285e-05C0.551086 3.16285e-05 0.360322 0.0790492 0.21967 0.219701C0.0790176 0.360353 0 0.551118 0 0.75003C0 0.948942 0.0790176 1.13971 0.21967 1.28036C0.360322 1.42101 0.551086 1.50003 0.749998 1.50003H2.41499L4.38299 9.37501C4.55024 10.0425 5.14799 10.5 5.83574 10.5H14.4382C15.1155 10.5 15.6907 10.05 15.8685 9.39751L17.8125 2.25003H5.24999L5.62499 3.75002H15.867L14.4375 9.00001H5.83499L3.86774 1.12503C3.78648 0.801952 3.59915 0.515489 3.33575 0.311516C3.07235 0.107543 2.74813 -0.0021397 2.41499 3.16285e-05H0.749998ZM13.5 10.5C12.2662 10.5 11.25 11.5163 11.25 12.75C11.25 13.9838 12.2662 15 13.5 15C14.7337 15 15.75 13.9838 15.75 12.75C15.75 11.5163 14.7337 10.5 13.5 10.5ZM6.74999 10.5C5.51624 10.5 4.49999 11.5163 4.49999 12.75C4.49999 13.9838 5.51624 15 6.74999 15C7.98373 15 8.99998 13.9838 8.99998 12.75C8.99998 11.5163 7.98373 10.5 6.74999 10.5ZM6.74999 12C7.17298 12 7.49998 12.327 7.49998 12.75C7.49998 13.173 7.17298 13.5 6.74999 13.5C6.32699 13.5 5.99999 13.173 5.99999 12.75C5.99999 12.327 6.32699 12 6.74999 12ZM13.5 12C13.923 12 14.25 12.327 14.25 12.75C14.25 13.173 13.923 13.5 13.5 13.5C13.077 13.5 12.75 13.173 12.75 12.75C12.75 12.327 13.077 12 13.5 12Z" fill="#566370"/>
</svg>
