<svg width="80" height="80" viewBox="0 0 80 80" fill="none" xmlns="http://www.w3.org/2000/svg">
<path d="M1.3335 12H78.6668V49.3333H1.3335V12Z" fill="#FF4768"/>
<path d="M51.4355 52.5547L55.2062 48.784L77.3057 70.8835C77.8058 71.3836 78.0867 72.0617 78.0867 72.7689C78.0867 73.476 77.8058 74.1542 77.3057 74.6542C76.8057 75.1542 76.1275 75.4351 75.4204 75.4351C74.7133 75.4351 74.0351 75.1542 73.5351 74.6542L51.4355 52.5547Z" fill="#FFDE55"/>
<path d="M45.437 46.5527L49.2077 42.7821L60.3383 53.9127L56.5677 57.6834L45.437 46.5527Z" fill="#FFDE55"/>
<path d="M38.6665 17.334H73.3332V25.334H38.6665V17.334Z" fill="#FFDE55"/>
<path d="M38.6665 36L40.7605 45.0738C40.9816 46.0317 41.4631 46.9099 42.1519 47.6114C42.8407 48.3128 43.7099 48.8102 44.6637 49.0487L49.0373 50.1422L52.8087 46.3708L51.7152 41.9972C51.4767 41.0434 50.9793 40.1742 50.2779 39.4854C49.5764 38.7966 48.6982 38.3151 47.7403 38.094L38.6665 36Z" fill="#FFDE55"/>
<path d="M80 60V4C79.9988 2.93951 79.5769 1.92282 78.8271 1.17294C78.0772 0.423059 77.0605 0.00123507 76 0H4C2.93951 0.00123507 1.92282 0.423059 1.17294 1.17294C0.423059 1.92282 0.00123507 2.93951 0 4V60C0.00123507 61.0605 0.423059 62.0772 1.17294 62.8271C1.92282 63.5769 2.93951 63.9988 4 64H30.426L28.2038 77.3333H22.6667C22.313 77.3333 21.9739 77.4738 21.7239 77.7239C21.4738 77.9739 21.3333 78.313 21.3333 78.6667C21.3333 79.0203 21.4738 79.3594 21.7239 79.6095C21.9739 79.8595 22.313 80 22.6667 80H57.3333C57.687 80 58.0261 79.8595 58.2761 79.6095C58.5262 79.3594 58.6667 79.0203 58.6667 78.6667C58.6667 78.313 58.5262 77.9739 58.2761 77.7239C58.0261 77.4738 57.687 77.3333 57.3333 77.3333H51.7962L49.574 64H61.0095L72.6077 75.5982C73.3578 76.3483 74.3752 76.7697 75.4361 76.7697C76.4969 76.7697 77.5144 76.3483 78.2645 75.5982C79.0135 74.8474 79.4341 73.8302 79.4341 72.7698C79.4341 71.7093 79.0135 70.6921 78.2645 69.9413L72.3232 64H76C77.0605 63.9988 78.0772 63.5769 78.8271 62.8271C79.5769 62.0772 79.9988 61.0605 80 60ZM50.9235 50.1427L52.809 48.257L58.4657 53.9137L56.58 55.8L50.9235 50.1427ZM48.6293 48.6657L44.9873 47.7552C44.2711 47.5782 43.6182 47.2058 43.1012 46.6794C42.5843 46.1531 42.2238 45.4935 42.0598 44.7742L40.4455 37.7788L47.4408 39.3932C48.1601 39.5571 48.8197 39.9176 49.3461 40.4346C49.8725 40.9515 50.2449 41.6045 50.4218 42.3207L51.3323 45.9627L48.6293 48.6657ZM54.0127 45.6898L53.0087 41.6732C52.7137 40.4795 52.0929 39.3912 51.2155 38.5298C50.3382 37.6683 49.2388 37.0674 48.04 36.7942L38.9667 34.7008C38.7463 34.65 38.5167 34.656 38.2993 34.7184C38.0819 34.7807 37.884 34.8973 37.724 35.0572C37.5641 35.2171 37.4475 35.4151 37.3852 35.6324C37.3228 35.8498 37.3168 36.0795 37.3677 36.2998L39.4617 45.3737C39.6822 46.3311 40.1116 47.2279 40.7192 48H2.66667V13.3333H77.3333V48H56.3232L54.0127 45.6898ZM4 2.66667H76C76.3535 2.66706 76.6924 2.80767 76.9424 3.05763C77.1923 3.30759 77.3329 3.6465 77.3333 4V10.6667H2.66667V4C2.66706 3.6465 2.80767 3.30759 3.05763 3.05763C3.30759 2.80767 3.6465 2.66706 4 2.66667ZM49.0927 77.3333H30.9073L33.1295 64H46.8705L49.0927 77.3333ZM4 61.3333C3.6465 61.3329 3.30759 61.1923 3.05763 60.9424C2.80767 60.6924 2.66706 60.3535 2.66667 60V50.6667H45.638L48.3557 51.346L58.3428 61.3333H4ZM76.3788 73.7125C76.255 73.8363 76.108 73.9345 75.9463 74.0015C75.7845 74.0686 75.6111 74.1031 75.436 74.1031C75.2609 74.1031 75.0875 74.0686 74.9257 74.0015C74.764 73.9345 74.617 73.8363 74.4932 73.7125L58.4657 57.685L60.3513 55.8L76.3788 71.8275C76.6283 72.0777 76.7684 72.4167 76.7684 72.77C76.7684 73.1233 76.6283 73.4623 76.3788 73.7125ZM58.9898 50.6667H77.3333V60C77.3329 60.3535 77.1923 60.6924 76.9424 60.9424C76.6924 61.1923 76.3535 61.3329 76 61.3333H69.6565L58.9898 50.6667Z" fill="#142537"/>
<path d="M42.6667 53.334H37.3333C36.9797 53.334 36.6406 53.4745 36.3905 53.7245C36.1405 53.9746 36 54.3137 36 54.6673C36 55.0209 36.1405 55.3601 36.3905 55.6101C36.6406 55.8602 36.9797 56.0007 37.3333 56.0007H42.6667C43.0203 56.0007 43.3594 55.8602 43.6095 55.6101C43.8595 55.3601 44 55.0209 44 54.6673C44 54.3137 43.8595 53.9746 43.6095 53.7245C43.3594 53.4745 43.0203 53.334 42.6667 53.334Z" fill="#142537"/>
<path d="M6.66683 8.00065C7.40321 8.00065 8.00016 7.4037 8.00016 6.66732C8.00016 5.93094 7.40321 5.33398 6.66683 5.33398C5.93045 5.33398 5.3335 5.93094 5.3335 6.66732C5.3335 7.4037 5.93045 8.00065 6.66683 8.00065Z" fill="#142537"/>
<path d="M11.9998 8.00065C12.7362 8.00065 13.3332 7.4037 13.3332 6.66732C13.3332 5.93094 12.7362 5.33398 11.9998 5.33398C11.2635 5.33398 10.6665 5.93094 10.6665 6.66732C10.6665 7.4037 11.2635 8.00065 11.9998 8.00065Z" fill="#142537"/>
<path d="M17.3333 8.00065C18.0697 8.00065 18.6667 7.4037 18.6667 6.66732C18.6667 5.93094 18.0697 5.33398 17.3333 5.33398C16.597 5.33398 16 5.93094 16 6.66732C16 7.4037 16.597 8.00065 17.3333 8.00065Z" fill="#142537"/>
<path d="M14.6668 18.6667H17.3335C17.6871 18.6667 18.0263 18.5262 18.2763 18.2761C18.5264 18.0261 18.6668 17.687 18.6668 17.3333C18.6668 16.9797 18.5264 16.6406 18.2763 16.3905C18.0263 16.1405 17.6871 16 17.3335 16H14.6668C14.3132 16 13.9741 16.1405 13.724 16.3905C13.474 16.6406 13.3335 16.9797 13.3335 17.3333C13.3335 17.687 13.474 18.0261 13.724 18.2761C13.9741 18.5262 14.3132 18.6667 14.6668 18.6667Z" fill="#142537"/>
<path d="M22.6668 18.6667H25.3335C25.6871 18.6667 26.0263 18.5262 26.2763 18.2761C26.5264 18.0261 26.6668 17.687 26.6668 17.3333C26.6668 16.9797 26.5264 16.6406 26.2763 16.3905C26.0263 16.1405 25.6871 16 25.3335 16H22.6668C22.3132 16 21.9741 16.1405 21.724 16.3905C21.474 16.6406 21.3335 16.9797 21.3335 17.3333C21.3335 17.687 21.474 18.0261 21.724 18.2761C21.9741 18.5262 22.3132 18.6667 22.6668 18.6667Z" fill="#142537"/>
<path d="M9.3335 42.6667H8.00016V41.3333C8.00016 40.9797 7.85969 40.6406 7.60964 40.3905C7.35959 40.1405 7.02045 40 6.66683 40C6.31321 40 5.97407 40.1405 5.72402 40.3905C5.47397 40.6406 5.3335 40.9797 5.3335 41.3333V44C5.3335 44.3536 5.47397 44.6928 5.72402 44.9428C5.97407 45.1929 6.31321 45.3333 6.66683 45.3333H9.3335C9.68712 45.3333 10.0263 45.1929 10.2763 44.9428C10.5264 44.6928 10.6668 44.3536 10.6668 44C10.6668 43.6464 10.5264 43.3072 10.2763 43.0572C10.0263 42.8071 9.68712 42.6667 9.3335 42.6667Z" fill="#142537"/>
<path d="M17.3335 42.666H14.6668C14.3132 42.666 13.9741 42.8065 13.724 43.0565C13.474 43.3066 13.3335 43.6457 13.3335 43.9993C13.3335 44.353 13.474 44.6921 13.724 44.9422C13.9741 45.1922 14.3132 45.3327 14.6668 45.3327H17.3335C17.6871 45.3327 18.0263 45.1922 18.2763 44.9422C18.5264 44.6921 18.6668 44.353 18.6668 43.9993C18.6668 43.6457 18.5264 43.3066 18.2763 43.0565C18.0263 42.8065 17.6871 42.666 17.3335 42.666Z" fill="#142537"/>
<path d="M25.3335 42.666H22.6668C22.3132 42.666 21.9741 42.8065 21.724 43.0565C21.474 43.3066 21.3335 43.6457 21.3335 43.9993C21.3335 44.353 21.474 44.6921 21.724 44.9422C21.9741 45.1922 22.3132 45.3327 22.6668 45.3327H25.3335C25.6871 45.3327 26.0263 45.1922 26.2763 44.9422C26.5264 44.6921 26.6668 44.353 26.6668 43.9993C26.6668 43.6457 26.5264 43.3066 26.2763 43.0565C26.0263 42.8065 25.6871 42.666 25.3335 42.666Z" fill="#142537"/>
<path d="M33.3335 16H30.6668C30.3132 16 29.9741 16.1405 29.724 16.3905C29.474 16.6406 29.3335 16.9797 29.3335 17.3333C29.3335 17.687 29.474 18.0261 29.724 18.2761C29.9741 18.5262 30.3132 18.6667 30.6668 18.6667H32.0002V20C32.0002 20.3536 32.1406 20.6928 32.3907 20.9428C32.6407 21.1929 32.9799 21.3333 33.3335 21.3333C33.6871 21.3333 34.0263 21.1929 34.2763 20.9428C34.5264 20.6928 34.6668 20.3536 34.6668 20V17.3333C34.6668 16.9797 34.5264 16.6406 34.2763 16.3905C34.0263 16.1405 33.6871 16 33.3335 16Z" fill="#142537"/>
<path d="M33.3333 24C32.9797 24 32.6406 24.1405 32.3905 24.3905C32.1405 24.6406 32 24.9797 32 25.3333V28C32 28.3536 32.1405 28.6928 32.3905 28.9428C32.6406 29.1929 32.9797 29.3333 33.3333 29.3333C33.687 29.3333 34.0261 29.1929 34.2761 28.9428C34.5262 28.6928 34.6667 28.3536 34.6667 28V25.3333C34.6667 24.9797 34.5262 24.6406 34.2761 24.3905C34.0261 24.1405 33.687 24 33.3333 24Z" fill="#142537"/>
<path d="M33.3333 32C32.9797 32 32.6406 32.1405 32.3905 32.3905C32.1405 32.6406 32 32.9797 32 33.3333V36C32 36.3536 32.1405 36.6928 32.3905 36.9428C32.6406 37.1929 32.9797 37.3333 33.3333 37.3333C33.687 37.3333 34.0261 37.1929 34.2761 36.9428C34.5262 36.6928 34.6667 36.3536 34.6667 36V33.3333C34.6667 32.9797 34.5262 32.6406 34.2761 32.3905C34.0261 32.1405 33.687 32 33.3333 32Z" fill="#142537"/>
<path d="M33.3335 40C32.9799 40 32.6407 40.1405 32.3907 40.3905C32.1406 40.6406 32.0002 40.9797 32.0002 41.3333V42.6667H30.6668C30.3132 42.6667 29.9741 42.8071 29.724 43.0572C29.474 43.3072 29.3335 43.6464 29.3335 44C29.3335 44.3536 29.474 44.6928 29.724 44.9428C29.9741 45.1929 30.3132 45.3333 30.6668 45.3333H33.3335C33.6871 45.3333 34.0263 45.1929 34.2763 44.9428C34.5264 44.6928 34.6668 44.3536 34.6668 44V41.3333C34.6668 40.9797 34.5264 40.6406 34.2763 40.3905C34.0263 40.1405 33.6871 40 33.3335 40Z" fill="#142537"/>
<path d="M6.66683 21.3333C7.02045 21.3333 7.35959 21.1929 7.60964 20.9428C7.85969 20.6928 8.00016 20.3536 8.00016 20V18.6667H9.3335C9.68712 18.6667 10.0263 18.5262 10.2763 18.2761C10.5264 18.0261 10.6668 17.687 10.6668 17.3333C10.6668 16.9797 10.5264 16.6406 10.2763 16.3905C10.0263 16.1405 9.68712 16 9.3335 16H6.66683C6.31321 16 5.97407 16.1405 5.72402 16.3905C5.47397 16.6406 5.3335 16.9797 5.3335 17.3333V20C5.3335 20.3536 5.47397 20.6928 5.72402 20.9428C5.97407 21.1929 6.31321 21.3333 6.66683 21.3333Z" fill="#142537"/>
<path d="M6.66683 29.3333C7.02045 29.3333 7.35959 29.1929 7.60964 28.9428C7.85969 28.6928 8.00016 28.3536 8.00016 28V25.3333C8.00016 24.9797 7.85969 24.6406 7.60964 24.3905C7.35959 24.1405 7.02045 24 6.66683 24C6.31321 24 5.97407 24.1405 5.72402 24.3905C5.47397 24.6406 5.3335 24.9797 5.3335 25.3333V28C5.3335 28.3536 5.47397 28.6928 5.72402 28.9428C5.97407 29.1929 6.31321 29.3333 6.66683 29.3333Z" fill="#142537"/>
<path d="M6.66683 37.3333C7.02045 37.3333 7.35959 37.1929 7.60964 36.9428C7.85969 36.6928 8.00016 36.3536 8.00016 36V33.3333C8.00016 32.9797 7.85969 32.6406 7.60964 32.3905C7.35959 32.1405 7.02045 32 6.66683 32C6.31321 32 5.97407 32.1405 5.72402 32.3905C5.47397 32.6406 5.3335 32.9797 5.3335 33.3333V36C5.3335 36.3536 5.47397 36.6928 5.72402 36.9428C5.97407 37.1929 6.31321 37.3333 6.66683 37.3333Z" fill="#142537"/>
<path d="M46.6668 29.334H38.6668C38.3132 29.334 37.9741 29.4745 37.724 29.7245C37.474 29.9746 37.3335 30.3137 37.3335 30.6673C37.3335 31.0209 37.474 31.3601 37.724 31.6101C37.9741 31.8602 38.3132 32.0007 38.6668 32.0007H46.6668C47.0205 32.0007 47.3596 31.8602 47.6096 31.6101C47.8597 31.3601 48.0002 31.0209 48.0002 30.6673C48.0002 30.3137 47.8597 29.9746 47.6096 29.7245C47.3596 29.4745 47.0205 29.334 46.6668 29.334Z" fill="#142537"/>
<path d="M73.3332 29.334H51.9998C51.6462 29.334 51.3071 29.4745 51.057 29.7245C50.807 29.9746 50.6665 30.3137 50.6665 30.6673C50.6665 31.0209 50.807 31.3601 51.057 31.6101C51.3071 31.8602 51.6462 32.0007 51.9998 32.0007H73.3332C73.6868 32.0007 74.0259 31.8602 74.276 31.6101C74.526 31.3601 74.6665 31.0209 74.6665 30.6673C74.6665 30.3137 74.526 29.9746 74.276 29.7245C74.0259 29.4745 73.6868 29.334 73.3332 29.334Z" fill="#142537"/>
<path d="M73.3335 34.666H54.6668C54.3132 34.666 53.9741 34.8065 53.724 35.0565C53.474 35.3066 53.3335 35.6457 53.3335 35.9993C53.3335 36.353 53.474 36.6921 53.724 36.9422C53.9741 37.1922 54.3132 37.3327 54.6668 37.3327H73.3335C73.6871 37.3327 74.0263 37.1922 74.2763 36.9422C74.5264 36.6921 74.6668 36.353 74.6668 35.9993C74.6668 35.6457 74.5264 35.3066 74.2763 35.0565C74.0263 34.8065 73.6871 34.666 73.3335 34.666Z" fill="#142537"/>
<path d="M73.3335 16H38.6668C38.3132 16 37.9741 16.1405 37.724 16.3905C37.474 16.6406 37.3335 16.9797 37.3335 17.3333V25.3333C37.3335 25.687 37.474 26.0261 37.724 26.2761C37.9741 26.5262 38.3132 26.6667 38.6668 26.6667H73.3335C73.6871 26.6667 74.0263 26.5262 74.2763 26.2761C74.5264 26.0261 74.6668 25.687 74.6668 25.3333V17.3333C74.6668 16.9797 74.5264 16.6406 74.2763 16.3905C74.0263 16.1405 73.6871 16 73.3335 16ZM72.0002 24H40.0002V18.6667H72.0002V24Z" fill="#142537"/>
<path d="M29.3332 22.6673C29.3332 22.3137 29.1927 21.9746 28.9426 21.7245C28.6926 21.4745 28.3535 21.334 27.9998 21.334H11.9998C11.6462 21.334 11.3071 21.4745 11.057 21.7245C10.807 21.9746 10.6665 22.3137 10.6665 22.6673V38.6673C10.6665 39.0209 10.807 39.3601 11.057 39.6101C11.3071 39.8602 11.6462 40.0007 11.9998 40.0007H27.9998C28.3535 40.0007 28.6926 39.8602 28.9426 39.6101C29.1927 39.3601 29.3332 39.0209 29.3332 38.6673V22.6673ZM26.6665 37.334H13.3332V24.0007H26.6665V37.334Z" fill="#142537"/>
</svg>
