<svg width="69" height="80" viewBox="0 0 69 80" fill="none" xmlns="http://www.w3.org/2000/svg">
<path d="M62.4977 36H6.49772C5.79048 36 5.1122 36.281 4.6121 36.781C4.11201 37.2811 3.83105 37.9594 3.83105 38.6667V76H65.1643V38.6667C65.1643 37.9594 64.8834 37.2811 64.3833 36.781C63.8832 36.281 63.2049 36 62.4977 36Z" fill="#FF4768"/>
<path d="M34.498 21.334C36.7072 21.334 38.498 19.5431 38.498 17.334C38.498 15.1248 36.7072 13.334 34.498 13.334C32.2889 13.334 30.498 15.1248 30.498 17.334C30.498 19.5431 32.2889 21.334 34.498 21.334Z" fill="#FF4768"/>
<path d="M54.498 62.666H59.8314V67.9993H54.498V62.666Z" fill="#FFDE55"/>
<path d="M55.5647 36L57.1647 48H51.8313L47.8313 38.6666H43.6313C45.5968 34.0304 46.5731 29.0351 46.498 24L54.498 28L55.5647 36Z" fill="#FFDE55"/>
<path d="M25.3644 38.6666H21.1644L17.1644 48H11.8311L13.4311 36L14.4977 28L22.4977 24C22.4226 29.0351 23.399 34.0304 25.3644 38.6666Z" fill="#FFDE55"/>
<path d="M9.16455 62.666H14.4979V67.9993H9.16455V62.666Z" fill="#FFDE55"/>
<path d="M34.4979 22.6667C35.5527 22.6667 36.5839 22.3539 37.4609 21.7678C38.338 21.1818 39.0216 20.3488 39.4252 19.3743C39.8289 18.3998 39.9345 17.3274 39.7287 16.2928C39.5229 15.2583 39.015 14.308 38.2691 13.5621C37.5232 12.8162 36.5729 12.3083 35.5384 12.1025C34.5038 11.8967 33.4314 12.0023 32.4569 12.406C31.4824 12.8096 30.6494 13.4932 30.0634 14.3703C29.4773 15.2474 29.1646 16.2785 29.1646 17.3333C29.1646 18.7478 29.7265 20.1044 30.7266 21.1046C31.7268 22.1048 33.0834 22.6667 34.4979 22.6667ZM34.4979 14.6667C35.0253 14.6667 35.5409 14.8231 35.9794 15.1161C36.4179 15.4091 36.7597 15.8256 36.9616 16.3128C37.1634 16.8001 37.2162 17.3363 37.1133 17.8536C37.0104 18.3709 36.7564 18.846 36.3835 19.2189C36.0106 19.5919 35.5354 19.8459 35.0181 19.9488C34.5008 20.0516 33.9647 19.9988 33.4774 19.797C32.9901 19.5952 32.5736 19.2534 32.2806 18.8149C31.9876 18.3763 31.8312 17.8607 31.8312 17.3333C31.8312 16.6261 32.1122 15.9478 32.6123 15.4477C33.1124 14.9476 33.7906 14.6667 34.4979 14.6667Z" fill="#142537"/>
<path d="M33.1646 36H35.8312V38.6667H33.1646V36Z" fill="#142537"/>
<path d="M33.1646 41.334H35.8312V50.6673H33.1646V41.334Z" fill="#142537"/>
<path d="M68.6978 72.4933C68.5737 72.3404 68.4173 72.2168 68.2398 72.1315C68.0623 72.0462 67.8681 72.0013 67.6711 72H66.4978V36C66.4978 35.6464 66.3573 35.3073 66.1073 35.0572C65.8572 34.8072 65.5181 34.6667 65.1645 34.6667H56.7378L55.8178 27.8267C55.7912 27.6114 55.7114 27.406 55.5857 27.2292C55.4601 27.0523 55.2924 26.9094 55.0978 26.8134L47.7778 23.1467C47.2845 10.5734 35.8578 0.73342 35.3645 0.320087C35.123 0.113515 34.8156 0 34.4978 0C34.18 0 33.8727 0.113515 33.6312 0.320087C33.1378 0.73342 21.7112 10.5734 21.2179 23.1467L13.8979 26.8134C13.7033 26.9094 13.5356 27.0523 13.4099 27.2292C13.2843 27.406 13.2045 27.6114 13.1779 27.8267L12.2579 34.6667H3.83121C3.47759 34.6667 3.13845 34.8072 2.8884 35.0572C2.63835 35.3073 2.49788 35.6464 2.49788 36V72H1.32454C1.1276 72.0013 0.933396 72.0462 0.755881 72.1315C0.578365 72.2168 0.421951 72.3404 0.297879 72.4933C0.171636 72.6477 0.0820487 72.8287 0.0358593 73.0227C-0.0103301 73.2167 -0.0119185 73.4186 0.031213 73.6133L1.19121 78.9467C1.25537 79.2454 1.42016 79.513 1.65802 79.7047C1.89587 79.8965 2.19236 80.0007 2.49788 80H66.4978C66.8033 80.0007 67.0998 79.8965 67.3377 79.7047C67.5755 79.513 67.7403 79.2454 67.8045 78.9467L68.9645 73.6133C69.0076 73.4186 69.006 73.2167 68.9598 73.0227C68.9136 72.8287 68.824 72.6477 68.6978 72.4933ZM47.7645 26.1201L53.2712 28.8801L55.6445 46.6667H52.7112L49.0578 38.1467C48.9557 37.9057 48.785 37.7001 48.5669 37.5555C48.3488 37.4108 48.0929 37.3336 47.8312 37.3334H45.6045C46.8791 33.7241 47.6071 29.9446 47.7645 26.1201ZM34.4978 3.14675C37.1778 5.69341 45.1645 14.1601 45.1645 24.0001C45.2658 29.2068 44.1662 34.3669 41.9512 39.08C40.7912 34.1067 37.9378 30.6667 34.4978 30.6667C31.0578 30.6667 28.2045 34.1067 27.0445 39.08C24.8295 34.3669 23.7299 29.2068 23.8312 24.0001C23.8312 14.1734 31.8178 5.70675 34.4978 3.14675ZM34.4978 54.2C32.8045 52.5867 29.1645 48.56 29.1645 44C29.1645 37.72 31.9778 33.3334 34.4978 33.3334C37.0178 33.3334 39.8312 37.72 39.8312 44C39.8312 48.56 36.1912 52.5867 34.4978 54.2ZM47.8312 53.3334V66.6667H21.1645V53.3334H30.1378C31.1806 54.6866 32.3602 55.9288 33.6578 57.04C33.8966 57.23 34.1927 57.3334 34.4978 57.3334C34.803 57.3334 35.0991 57.23 35.3378 57.04C36.6355 55.9288 37.8151 54.6866 38.8578 53.3334H47.8312ZM15.7245 28.8801L21.2312 26.1201C21.3886 29.9446 22.1166 33.7241 23.3912 37.3334H21.1645C20.9028 37.3336 20.6469 37.4108 20.4288 37.5555C20.2107 37.7001 20.0399 37.9057 19.9379 38.1467L16.2845 46.6667H13.3512L15.7245 28.8801ZM5.16454 37.3334H11.9112L10.5112 47.8267C10.4865 48.0149 10.5022 48.2063 10.5574 48.3879C10.6126 48.5696 10.7059 48.7374 10.8312 48.88C10.9551 49.0236 11.1087 49.1384 11.2813 49.2167C11.454 49.295 11.6416 49.3348 11.8312 49.3334H17.1645C17.4262 49.3331 17.6821 49.2559 17.9002 49.1113C18.1184 48.9667 18.2891 48.761 18.3912 48.52L22.0445 40H24.5112C25.0788 41.1536 25.7528 42.2517 26.5245 43.28C26.5112 43.52 26.4978 43.76 26.4978 44C26.5523 46.3452 27.199 48.6386 28.3778 50.6667H19.8312C19.4776 50.6667 19.1384 50.8072 18.8884 51.0572C18.6383 51.3073 18.4979 51.6464 18.4979 52V68C18.4979 68.3536 18.6383 68.6928 18.8884 68.9428C19.1384 69.1929 19.4776 69.3333 19.8312 69.3333H49.1645C49.5181 69.3333 49.8573 69.1929 50.1073 68.9428C50.3573 68.6928 50.4978 68.3536 50.4978 68V52C50.4978 51.6464 50.3573 51.3073 50.1073 51.0572C49.8573 50.8072 49.5181 50.6667 49.1645 50.6667H40.6178C41.7967 48.6386 42.4434 46.3452 42.4978 44C42.4978 43.76 42.4845 43.52 42.4712 43.28C43.2428 42.2517 43.9169 41.1536 44.4845 40H46.9512L50.6045 48.52C50.7066 48.761 50.8773 48.9667 51.0954 49.1113C51.3136 49.2559 51.5694 49.3331 51.8312 49.3334H57.1645C57.3541 49.3348 57.5417 49.295 57.7144 49.2167C57.887 49.1384 58.0406 49.0236 58.1645 48.88C58.2897 48.7374 58.3831 48.5696 58.4383 48.3879C58.4935 48.2063 58.5092 48.0149 58.4845 47.8267L57.0845 37.3334H63.8311V72H38.4978C38.1442 72 37.8051 72.1405 37.555 72.3905C37.305 72.6406 37.1645 72.9797 37.1645 73.3333H31.8312C31.8312 72.9797 31.6907 72.6406 31.4407 72.3905C31.1906 72.1405 30.8515 72 30.4978 72H5.16454V37.3334ZM65.4311 77.3333H3.56454L2.99121 74.6667H29.1645C29.1645 75.0203 29.305 75.3594 29.555 75.6095C29.8051 75.8595 30.1442 76 30.4978 76H38.4978C38.8515 76 39.1906 75.8595 39.4406 75.6095C39.6907 75.3594 39.8312 75.0203 39.8312 74.6667H66.0045L65.4311 77.3333Z" fill="#142537"/>
<path d="M53.1646 56H61.1645V58.6667H53.1646V56Z" fill="#142537"/>
<path d="M54.4979 69.334H59.8312C60.1848 69.334 60.524 69.1935 60.774 68.9435C61.0241 68.6934 61.1645 68.3543 61.1645 68.0006V62.6673C61.1645 62.3137 61.0241 61.9746 60.774 61.7245C60.524 61.4745 60.1848 61.334 59.8312 61.334H54.4979C54.1443 61.334 53.8051 61.4745 53.5551 61.7245C53.305 61.9746 53.1646 62.3137 53.1646 62.6673V68.0006C53.1646 68.3543 53.305 68.6934 53.5551 68.9435C53.8051 69.1935 54.1443 69.334 54.4979 69.334ZM55.8312 64.0006H58.4979V66.6673H55.8312V64.0006Z" fill="#142537"/>
<path d="M7.83105 56H15.831V58.6667H7.83105V56Z" fill="#142537"/>
<path d="M14.4977 61.334H9.16439C8.81076 61.334 8.47163 61.4745 8.22158 61.7245C7.97153 61.9746 7.83105 62.3137 7.83105 62.6673V68.0006C7.83105 68.3543 7.97153 68.6934 8.22158 68.9435C8.47163 69.1935 8.81076 69.334 9.16439 69.334H14.4977C14.8513 69.334 15.1905 69.1935 15.4405 68.9435C15.6906 68.6934 15.831 68.3543 15.831 68.0006V62.6673C15.831 62.3137 15.6906 61.9746 15.4405 61.7245C15.1905 61.4745 14.8513 61.334 14.4977 61.334ZM13.1644 66.6673H10.4977V64.0006H13.1644V66.6673Z" fill="#142537"/>
<path d="M50.4977 7.99999H53.1644V5.33333H55.831V2.66666H53.1644V0H50.4977V2.66666H47.8311V5.33333H50.4977V7.99999Z" fill="#142537"/>
<path d="M61.1647 16H63.8314V13.3333H66.498V10.6667H63.8314V8H61.1647V10.6667H58.498V13.3333H61.1647V16Z" fill="#142537"/>
<path d="M15.8312 7.99999H18.4979V5.33333H21.1645V2.66666H18.4979V0H15.8312V2.66666H13.1646V5.33333H15.8312V7.99999Z" fill="#142537"/>
<path d="M5.16471 16H7.83137V13.3333H10.498V10.6667H7.83137V8H5.16471V10.6667H2.49805V13.3333H5.16471V16Z" fill="#142537"/>
</svg>
