<svg width="80" height="80" viewBox="0 0 80 80" fill="none" xmlns="http://www.w3.org/2000/svg">
<path d="M18.0642 63.2242H17.8449C17.161 63.2242 16.5029 63.4952 16.0126 63.9855L14.1933 65.8049V73.5468H11.6126C10.7223 73.5468 9.85778 73.4307 9.03197 73.2242C4.58036 72.0758 1.29004 68.0371 1.29004 63.2242V61.9339C1.29004 55.521 3.89649 49.7145 8.09004 45.5081C11.7804 41.8307 16.6965 39.3791 22.1675 38.8242L24.5158 52.9016H21.9352C20.5158 52.9016 19.3546 54.0629 19.3546 55.4823V63.5726C18.9804 63.3533 18.5287 63.2242 18.0642 63.2242Z" fill="#FF4768"/>
<path d="M29.6769 45.1602L34.8382 52.9021H24.5156L29.6769 45.1602Z" fill="#FF4768"/>
<path d="M50.3223 63.225H47.7416C46.3223 63.225 45.161 64.3863 45.161 65.8056V68.3863C45.161 69.8056 46.3223 70.9669 47.7416 70.9669C46.3223 70.9669 45.161 72.1282 45.161 73.5476V76.1282C45.161 77.5476 46.3223 78.7089 47.7416 78.7089H39.9997V55.4831C39.9997 54.0637 38.8384 52.9024 37.419 52.9024H34.8384L37.1868 38.8379C45.3674 39.6508 52.2964 44.7218 55.7416 51.7927C55.5739 52.1282 55.4835 52.5024 55.4835 52.9024V55.4831C55.4835 56.9024 56.6448 58.0637 58.0642 58.0637C56.6448 58.0637 55.4835 59.225 55.4835 60.6443V63.225H50.3223Z" fill="#FF4768"/>
<path d="M37.1869 38.838L34.8385 52.9025L29.6772 45.1606L34.8385 38.709C35.6256 38.709 36.4127 38.7477 37.1869 38.838Z" fill="#FF4768"/>
<path d="M24.5159 38.709L29.6772 45.1606L24.5159 52.9025L22.1675 38.8251C22.9417 38.7477 23.7288 38.709 24.5159 38.709Z" fill="#FF4768"/>
<path d="M73.5483 9.03125H78.7096V37.4183H73.5483V9.03125Z" fill="#FFDE55"/>
<path d="M63.2256 14.1914H68.3869V37.4172H63.2256V14.1914Z" fill="#FFDE55"/>
<path d="M52.9028 19.3535H58.0641V37.418H52.9028V19.3535Z" fill="#FFDE55"/>
<path d="M60.6447 50.3223H65.806H70.9673H73.5479C74.9673 50.3223 76.1286 51.4836 76.1286 52.9029V55.4836C76.1286 56.9029 74.9673 58.0642 73.5479 58.0642H70.9673H65.806H60.6447H58.064C56.6447 58.0642 55.4834 56.9029 55.4834 55.4836V52.9029C55.4834 52.5029 55.5737 52.1287 55.7415 51.7932C56.1544 50.9287 57.0447 50.3223 58.064 50.3223H60.6447Z" fill="#FFDE55"/>
<path d="M70.9675 65.8047H73.5482C74.9675 65.8047 76.1288 66.966 76.1288 68.3853V70.966C76.1288 72.3853 74.9675 73.5466 73.5482 73.5466H65.8062C65.8062 72.1273 64.6449 70.966 63.2256 70.966C64.6449 70.966 65.8062 69.8047 65.8062 68.3853V65.8047H70.9675Z" fill="#FFDE55"/>
<path d="M60.645 63.2246H63.2256C64.645 63.2246 65.8063 64.3859 65.8063 65.8053V68.3859C65.8063 69.8053 64.645 70.9665 63.2256 70.9665H60.645H55.4837H50.3224H47.7418C46.3224 70.9665 45.1611 69.8053 45.1611 68.3859V65.8053C45.1611 64.3859 46.3224 63.2246 47.7418 63.2246H50.3224H55.4837H60.645Z" fill="#FFDE55"/>
<path d="M17.845 63.2246H18.0643C18.5288 63.2246 18.9805 63.3536 19.3546 63.573C19.5482 63.6891 19.7288 63.8182 19.8837 63.9859C20.3611 64.4504 20.645 65.0956 20.645 65.8053C21.7159 65.8053 22.6837 66.244 23.3805 66.9407C24.0772 67.6375 24.5159 68.6053 24.5159 69.6762C24.5159 71.8182 22.7869 73.5472 20.645 73.5472H19.3546H14.1934V65.8053L16.0127 63.9859C16.503 63.4956 17.1611 63.2246 17.845 63.2246Z" fill="#FFDE55"/>
<path d="M33.5479 36.127L34.8382 38.7076L29.6769 45.1592L24.5156 38.7076L25.8059 36.127H33.5479Z" fill="#FFDE55"/>
<path d="M46.2709 18.9012C46.387 18.9915 46.5031 19.0948 46.6064 19.198C47.3031 19.8948 47.7419 20.8625 47.7419 21.9335C47.7419 24.0754 46.0128 25.8044 43.8709 25.8044H42.5806V19.3528V18.0625H43.8709C44.7741 18.0625 45.6128 18.3722 46.2709 18.9012Z" fill="#FFDE55"/>
<path d="M24.5156 14.1914H34.8382C33.4189 14.1914 32.2576 15.3527 32.2576 16.7721V18.0624H27.0963V16.7721C27.0963 15.3527 25.935 14.1914 24.5156 14.1914Z" fill="#FFDE55"/>
<path d="M42.5804 25.8044V28.3851C42.5804 32.656 39.1094 36.127 34.8384 36.127H33.5481H25.8062H24.5159C20.2449 36.127 16.7739 32.656 16.7739 28.3851V25.8044V19.3528C16.7739 20.7722 17.9352 21.9335 19.3546 21.9335H24.5159C25.9352 21.9335 27.0965 20.7722 27.0965 19.3528V18.0625H32.2578V19.3528C32.2578 20.7722 33.4191 21.9335 34.8384 21.9335H39.9997C41.4191 21.9335 42.5804 20.7722 42.5804 19.3528V25.8044Z" fill="#FFDE55"/>
<path d="M16.7741 19.3528V25.8044H15.4838C14.4128 25.8044 13.4451 25.3657 12.7483 24.669C12.0515 23.9722 11.6128 23.0044 11.6128 21.9335C11.6128 20.7335 12.1547 19.6625 13.0063 18.9657C13.6773 18.398 14.5418 18.0625 15.4838 18.0625H16.7741V19.3528Z" fill="#FFDE55"/>
<path d="M24.5156 58.0625H34.8382V63.2238H24.5156V58.0625Z" fill="#FFDE55"/>
<path d="M42.5804 18.0624V19.3527C42.5804 20.7721 41.4191 21.9333 39.9997 21.9333H34.8385C33.4191 21.9333 32.2578 20.7721 32.2578 19.3527V18.0624V16.7721C32.2578 15.3527 33.4191 14.1914 34.8385 14.1914H36.1288H39.3933C41.1481 14.1914 42.5804 15.6237 42.5804 17.3785V18.0624Z" fill="#FFDE55"/>
<path d="M16.7739 18.0632V10.9277C16.7739 12.1406 17.4578 13.2374 18.5417 13.7793L18.6836 13.8568C19.1223 14.0761 19.6126 14.1923 20.103 14.1923H23.2255H24.5159C25.9352 14.1923 27.0965 15.3535 27.0965 16.7729V18.0632V19.3535C27.0965 20.7729 25.9352 21.9342 24.5159 21.9342H19.3546C17.9352 21.9342 16.7739 20.7729 16.7739 19.3535V18.0632Z" fill="#FFDE55"/>
<path d="M29.6775 32.2578C32.5497 32.2578 35.0891 30.4281 35.9962 27.703L36.062 27.5043L33.6143 26.6875L33.5485 26.8875C32.9923 28.5559 31.4362 29.6772 29.6775 29.6772C27.9188 29.6772 26.3626 28.5559 25.8065 26.8862L25.7407 26.6875L23.293 27.5043L23.3588 27.7017C24.2659 30.4281 26.8052 32.2578 29.6775 32.2578Z" fill="#142537"/>
<path d="M36.1288 56.7734H23.2256V64.5154H36.1288V56.7734ZM33.5482 61.9347H25.8062V59.3541H33.5482V61.9347Z" fill="#142537"/>
<path d="M28.3872 67.0977H30.9679V69.6783H28.3872V67.0977Z" fill="#142537"/>
<path d="M33.5483 67.0977H36.129V69.6783H33.5483V67.0977Z" fill="#142537"/>
<path d="M33.5483 72.2578H36.129V74.8385H33.5483V72.2578Z" fill="#142537"/>
<path d="M28.3872 72.2578H30.9679V74.8385H28.3872V72.2578Z" fill="#142537"/>
<path d="M73.5484 41.2903H58.0645C55.9303 41.2903 54.1936 43.0271 54.1936 45.1613V46.8671C49.7703 41.1497 43.0503 37.6671 35.6426 37.4323L35.6168 37.3806C40.2336 36.9832 43.871 33.1045 43.871 28.3871V27.0968C46.7174 27.0968 49.0323 24.7819 49.0323 21.9355C49.0323 20.671 48.5574 19.5252 47.7987 18.6271C48.5923 16.8258 49.0323 14.8735 49.0323 12.9032V11.2568C49.0323 7.86064 46.6142 4.91097 43.2826 4.24387C42.3948 4.06581 41.5871 3.63355 40.9471 2.99355L40.0477 2.09419C38.6981 0.744516 36.9019 0 34.9923 0H23.6568C16.3045 0 10.3226 5.98194 10.3226 13.3329C10.3226 15.1845 10.7368 17.0206 11.4839 18.7148C10.769 19.6 10.3226 20.711 10.3226 21.9355C10.3226 24.7819 12.6374 27.0968 15.4839 27.0968H15.4865L15.4839 28.3871C15.4839 33.1045 19.1213 36.9832 23.7381 37.3794L23.7123 37.4323C10.5652 37.8581 0 48.6865 0 61.9355V63.2258C0 68.2697 3.23871 72.5613 7.74194 74.1613V80H47.7419H63.2258C65.36 80 67.0968 78.2632 67.0968 76.129V74.8387H73.5484C75.6826 74.8387 77.4194 73.1019 77.4194 70.9677V68.3871C77.4194 67.3923 77.031 66.4929 76.4129 65.8064C77.0323 65.12 77.4194 64.2206 77.4194 63.2258V60.6452C77.4194 59.6503 77.031 58.751 76.4129 58.0645C77.0323 57.3781 77.4194 56.4787 77.4194 55.4839V52.9032C77.4194 51.9084 77.031 51.009 76.4129 50.3226C77.0323 49.6361 77.4194 48.7368 77.4194 47.7419V45.1613C77.4194 43.0271 75.6826 41.2903 73.5484 41.2903ZM56.7742 45.1613C56.7742 44.4503 57.3536 43.871 58.0645 43.871H59.3548V46.4516H61.9355V43.871H64.5161V46.4516H67.0968V43.871H69.6774V46.4516H72.2581V43.871H73.5484C74.2594 43.871 74.8387 44.4503 74.8387 45.1613V47.7419C74.8387 48.4529 74.2594 49.0323 73.5484 49.0323H58.0645C57.3536 49.0323 56.7742 48.4529 56.7742 47.7419V45.1613ZM74.8387 52.9032V55.4839C74.8387 56.1948 74.2594 56.7742 73.5484 56.7742H58.0645C57.3536 56.7742 56.7742 56.1948 56.7742 55.4839V52.9032C56.7742 52.1923 57.3536 51.6129 58.0645 51.6129H59.3548V54.1935H61.9355V51.6129H64.5161V54.1935H67.0968V51.6129H69.6774V54.1935H72.2581V51.6129H73.5484C74.2594 51.6129 74.8387 52.1923 74.8387 52.9032ZM74.8387 60.6452V63.2258C74.8387 63.9368 74.2594 64.5161 73.5484 64.5161H66.8594C66.3252 63.0181 64.9058 61.9355 63.2258 61.9355H61.9355V59.3548H64.5161V61.9355H67.0968V59.3548H69.6774V61.9355H72.2581V59.3548H73.5484C74.2594 59.3548 74.8387 59.9342 74.8387 60.6452ZM47.7419 69.6774C47.031 69.6774 46.4516 69.0981 46.4516 68.3871V65.8064C46.4516 65.0955 47.031 64.5161 47.7419 64.5161H49.0323V67.0968H51.6129V64.5161H54.1936V67.0968H56.7742V64.5161H59.3548V67.0968H61.9355V64.5161H63.2258C63.9368 64.5161 64.5161 65.0955 64.5161 65.8064V68.3871C64.5161 69.0981 63.9368 69.6774 63.2258 69.6774H47.7419ZM56.7742 60.6452C56.7742 59.9342 57.3536 59.3548 58.0645 59.3548H59.3548V61.9355H56.7742V60.6452ZM54.3394 51.9071C54.2542 52.2271 54.1936 52.5561 54.1936 52.9032V55.4839C54.1936 56.4787 54.5819 57.3781 55.2 58.0645C54.5806 58.751 54.1936 59.6503 54.1936 60.6452V61.9355H51.6129V52.9032H49.0323V61.9355H47.7419C45.6077 61.9355 43.871 63.6723 43.871 65.8064V68.3871C43.871 69.3819 44.2594 70.2813 44.8774 70.9677C44.2581 71.6542 43.871 72.5535 43.871 73.5484V76.129C43.871 76.5832 43.9639 77.0142 44.1084 77.4193H41.2903V55.4839C41.2903 53.3497 39.5536 51.6129 37.4194 51.6129H36.3613L38.2516 40.2684C45.1381 41.3316 51.0852 45.5794 54.3394 51.9071ZM15.4839 66.3406L16.9303 64.8942C17.1742 64.6503 17.4994 64.5161 17.8439 64.5161H18.0645C18.7755 64.5161 19.3548 65.0955 19.3548 65.8064V67.0968H20.6452C22.0684 67.0968 23.2258 68.2542 23.2258 69.6774C23.2258 71.1006 22.0684 72.2581 20.6452 72.2581H15.4839V66.3406ZM25.8065 69.6774C25.8065 67.2116 24.0697 65.1445 21.7548 64.6361C21.5445 63.9729 21.151 63.3935 20.6452 62.9381V55.4839C20.6452 54.7729 21.2245 54.1935 21.9355 54.1935H37.4194C38.1303 54.1935 38.7097 54.7729 38.7097 55.4839V77.4193H20.6452V74.8387C23.4916 74.8387 25.8065 72.5239 25.8065 69.6774ZM32.751 37.4194L33.3161 38.5484L29.6774 43.0955L26.04 38.5484L26.6039 37.4194H32.751ZM29.6774 47.4877L32.4271 51.6129H26.9265L29.6774 47.4877ZM31.2748 45.231L35.4426 40.0219C35.5213 40.0245 35.5987 40.0271 35.6774 40.0297L34.1032 49.4735L31.2748 45.231ZM23.92 40.0297L28.08 45.2297L25.2516 49.4723L23.68 40.0426C23.7613 40.0387 23.84 40.0323 23.92 40.0297ZM30.9677 16.7742H28.3871C28.3871 16.32 28.2942 15.889 28.1497 15.4839H31.2065C31.0606 15.889 30.9677 16.32 30.9677 16.7742ZM25.8065 16.7742V19.3548C25.8065 20.0658 25.2271 20.6452 24.5161 20.6452H19.3548C18.6439 20.6452 18.0645 20.0658 18.0645 19.3548V18.0645V14.991L18.1032 15.0103C18.7226 15.32 19.4155 15.4839 20.1071 15.4839H23.2258H24.5161C25.2271 15.4839 25.8065 16.0632 25.8065 16.7742ZM33.5484 16.7742C33.5484 16.0632 34.1277 15.4839 34.8387 15.4839H36.129H39.391C40.4374 15.4839 41.2903 16.3368 41.2903 17.3832V18.0645V19.3548C41.2903 20.0658 40.711 20.6452 40 20.6452H34.8387C34.1277 20.6452 33.5484 20.0658 33.5484 19.3548V16.7742ZM43.871 24.5161V19.3548C45.2942 19.3548 46.4516 20.5123 46.4516 21.9355C46.4516 23.3587 45.2942 24.5161 43.871 24.5161ZM23.6555 2.58065H34.991C36.2116 2.58065 37.3587 3.05677 38.2232 3.92L39.1226 4.81936C40.1239 5.82065 41.3884 6.49806 42.7768 6.77548C44.9058 7.2 46.4516 9.08516 46.4516 11.2568V12.9032C46.4516 14.3406 46.1755 15.7729 45.6555 17.111C45.0968 16.9032 44.5006 16.7742 43.871 16.7742H43.809C43.5084 14.5935 41.6516 12.9032 39.391 12.9032H36.129H34.8387H24.5161H23.2258H20.1071C19.8142 12.9032 19.52 12.8335 19.2581 12.7019L19.1135 12.6297C18.4671 12.3071 18.0645 11.6568 18.0645 10.9316C18.0645 9.88516 18.9174 9.03226 19.9639 9.03226H21.9355V6.45161H19.9639C17.7006 6.45161 15.8232 8.13935 15.5252 10.3226L15.5097 16.7742H15.4839C14.8181 16.7742 14.1871 16.911 13.6026 17.1406C13.1432 15.9277 12.9032 14.6323 12.9032 13.3329C12.9032 7.40387 17.7265 2.58065 23.6555 2.58065ZM15.4839 24.5161C14.0606 24.5161 12.9032 23.3587 12.9032 21.9355C12.9032 20.5123 14.0606 19.3548 15.4839 19.3548C15.4839 19.4232 15.5006 19.4877 15.5045 19.5561L15.4929 24.5161H15.4839ZM18.0645 28.3871V22.9884C18.4697 23.1329 18.9006 23.2258 19.3548 23.2258H24.5161C26.6503 23.2258 28.3871 21.489 28.3871 19.3548H30.9677C30.9677 21.489 32.7045 23.2258 34.8387 23.2258H40C40.4542 23.2258 40.8852 23.1329 41.2903 22.9884V28.3871C41.2903 31.9445 38.3961 34.8387 34.8387 34.8387H24.5161C20.9587 34.8387 18.0645 31.9445 18.0645 28.3871ZM2.58065 63.2258V61.9355C2.58065 51.0026 10.6284 41.9394 21.1058 40.2929L22.9935 51.6129H21.9355C19.8013 51.6129 18.0645 53.3497 18.0645 55.4839V61.9355H17.8439C16.8103 61.9355 15.8374 62.3381 15.1058 63.0697L13.6916 64.4839C11.7935 64.2374 10.3226 62.609 10.3226 60.6452V52.9032H7.74194V60.6452C7.74194 63.76 9.96258 66.3664 12.9032 66.9664V72.2581H11.6129C6.63226 72.2581 2.58065 68.2065 2.58065 63.2258ZM10.3226 74.7626C10.7471 74.8103 11.1768 74.8387 11.6129 74.8387H18.0645V77.4193H10.3226V74.7626ZM64.5161 76.129C64.5161 76.84 63.9368 77.4193 63.2258 77.4193H47.7419C47.031 77.4193 46.4516 76.84 46.4516 76.129V73.5484C46.4516 72.8374 47.031 72.2581 47.7419 72.2581H49.0323V74.8387H51.6129V72.2581H54.1936V74.8387H56.7742V72.2581H59.3548V74.8387H61.9355V72.2581H63.2258C63.9368 72.2581 64.5161 72.8374 64.5161 73.5484V76.129ZM74.8387 70.9677C74.8387 71.6787 74.2594 72.2581 73.5484 72.2581H66.8594C66.6878 71.7755 66.4271 71.3406 66.0903 70.9677C66.7097 70.2813 67.0968 69.3819 67.0968 68.3871V67.0968H69.6774V69.6774H72.2581V67.0968H73.5484C74.2594 67.0968 74.8387 67.6761 74.8387 68.3871V70.9677Z" fill="#142537"/>
<path d="M72.258 7.74219V36.1293H69.6773V12.9035H61.9354V36.1293H59.3547V18.0648H51.6128V38.7099H79.9999V7.74219H72.258ZM56.7741 36.1293H54.1934V20.6454H56.7741V36.1293ZM64.516 15.4841H67.0967V36.1293H64.516V15.4841ZM77.4192 36.1293H74.8386V10.3228H77.4192V36.1293Z" fill="#142537"/>
</svg>
