<svg width="72" height="80" viewBox="0 0 72 80" fill="none" xmlns="http://www.w3.org/2000/svg">
<path d="M45.3335 1.33398H50.6668V10.6673H45.3335V1.33398Z" fill="#FFDE55"/>
<path d="M70.6665 10.666H65.3332V1.33268H70.6665V10.666Z" fill="#FFDE55"/>
<path d="M1.3335 1.33398H6.66683V10.6673H1.3335V1.33398Z" fill="#FFDE55"/>
<path d="M26.6665 10.666H21.3332V1.33268H26.6665V10.666Z" fill="#FFDE55"/>
<path d="M21.3332 72L26.6665 76V78.6667H14.6665V76L21.3332 72Z" fill="#FFDE55"/>
<path d="M45.3335 76V78.6667H57.3335V76L50.6668 72L45.3335 76Z" fill="#FFDE55"/>
<path d="M50.8801 25.8672L45.3335 29.3339V37.3339H26.6668V29.3339L21.1201 25.8672L24.2418 18.0605L36.0001 21.0005L47.7584 18.0605L50.8801 25.8672Z" fill="#FF4768"/>
<path d="M6.66667 0H1.33333C0.979712 3.53616e-06 0.640576 0.14048 0.390528 0.390528C0.140481 0.640576 3.53616e-06 0.979712 0 1.33333V10.6667C3.53616e-06 11.0203 0.140481 11.3594 0.390528 11.6095C0.640576 11.8595 0.979712 12 1.33333 12H6.66667C7.02029 12 7.35942 11.8595 7.60947 11.6095C7.85952 11.3594 8 11.0203 8 10.6667V9.33333H9.33732C9.33594 9.50272 9.36696 9.6708 9.42871 9.82853L14.1147 21.5437C14.6379 22.8595 15.5689 23.9731 16.7712 24.7211L25.3333 30.0723V37.2314L20.1107 71.1787L13.9806 74.8567C13.7832 74.9752 13.6198 75.1427 13.5064 75.3431C13.393 75.5434 13.3333 75.7698 13.3333 76V78.6667C13.3333 79.0203 13.4738 79.3594 13.7239 79.6095C13.9739 79.8595 14.313 80 14.6667 80H26.6667C27.0203 80 27.3594 79.8595 27.6095 79.6095C27.8595 79.3594 28 79.0203 28 78.6667V76.207L36 51.0641L44 76.207V78.6667C44 79.0203 44.1405 79.3594 44.3905 79.6095C44.6406 79.8595 44.9797 80 45.3333 80H57.3333C57.687 80 58.0261 79.8595 58.2761 79.6095C58.5262 79.3594 58.6667 79.0203 58.6667 78.6667V76C58.6667 75.7698 58.607 75.5434 58.4936 75.3431C58.3802 75.1427 58.2168 74.9752 58.0194 74.8567L51.8893 71.1787L46.6667 37.2314V30.0723L55.2288 24.721C56.4312 23.9731 57.3622 22.8595 57.8852 21.5437L62.5713 9.82853C62.633 9.6708 62.6641 9.50272 62.6627 9.33333H64V10.6667C64 11.0203 64.1405 11.3594 64.3905 11.6095C64.6406 11.8595 64.9797 12 65.3333 12H70.6667C71.0203 12 71.3594 11.8595 71.6095 11.6095C71.8595 11.3594 72 11.0203 72 10.6667V1.33333C72 0.979712 71.8595 0.640576 71.6095 0.390528C71.3594 0.14048 71.0203 3.53616e-06 70.6667 0H65.3333C64.9797 3.53616e-06 64.6406 0.14048 64.3905 0.390528C64.1405 0.640576 64 0.979712 64 1.33333V2.66667H52V1.33333C52 0.979712 51.8595 0.640576 51.6095 0.390528C51.3594 0.14048 51.0203 3.53616e-06 50.6667 0H45.3333C44.9797 3.53616e-06 44.6406 0.14048 44.3905 0.390528C44.1405 0.640576 44 0.979712 44 1.33333V10.6667C44 11.0203 44.1405 11.3594 44.3905 11.6095C44.6406 11.8595 44.9797 12 45.3333 12H50.6667C51.0203 12 51.3594 11.8595 51.6095 11.6095C51.8595 11.3594 52 11.0203 52 10.6667V9.33333H53.3333V10.2974L49.8075 16.1737L41.3333 18.2923V12.4037C41.3334 11.6067 41.1171 10.8245 40.7075 10.1407C40.2979 9.45695 39.7104 8.89716 39.0076 8.52106C38.3049 8.14495 37.5132 7.96664 36.7171 8.00514C35.9209 8.04364 35.1502 8.29751 34.487 8.73967L31.2604 10.8906C31.0778 11.0124 30.928 11.1773 30.8244 11.3709C30.7209 11.5644 30.6667 11.7805 30.6667 12V18.2923L22.1925 16.1737L18.6667 10.2974V9.33333H20V10.6667C20 11.0203 20.1405 11.3594 20.3905 11.6095C20.6406 11.8595 20.9797 12 21.3333 12H26.6667C27.0203 12 27.3594 11.8595 27.6095 11.6095C27.8595 11.3594 28 11.0203 28 10.6667V1.33333C28 0.979712 27.8595 0.640576 27.6095 0.390528C27.3594 0.14048 27.0203 3.53616e-06 26.6667 0H21.3333C20.9797 3.53616e-06 20.6406 0.14048 20.3905 0.390528C20.1405 0.640576 20 0.979712 20 1.33333V2.66667H8V1.33333C8 0.979712 7.85952 0.640576 7.60947 0.390528C7.35942 0.14048 7.02029 3.53616e-06 6.66667 0ZM5.33333 9.33333H2.66667V2.66667H5.33333V9.33333ZM66.6667 2.66667H69.3333V9.33333H66.6667V2.66667ZM49.3333 9.33333H46.6667V2.66667H49.3333V9.33333ZM22.6667 2.66667H25.3333V9.33333H22.6667V2.66667ZM16 77.3333V76.7549L21.2506 73.6046L25.3333 76.6666V77.3333H16ZM25.9652 73.8073L22.7727 71.4129L25.5329 53.472L31.7736 55.5522L25.9652 73.8073ZM36 45.3333C35.717 45.3333 35.4414 45.4233 35.213 45.5904C34.9846 45.7574 34.8153 45.9927 34.7295 46.2624L32.5823 53.0108L25.9442 50.7982L27.8106 38.6667H44.1894L46.0558 50.7982L39.4177 53.0108L37.2705 46.2624C37.1847 45.9927 37.0154 45.7574 36.787 45.5904C36.5586 45.4233 36.283 45.3333 36 45.3333ZM40.2264 55.5522L46.4671 53.472L49.2273 71.4129L46.0348 73.8073L40.2264 55.5522ZM56 76.7549V77.3333H46.6667V76.6666L50.7494 73.6046L56 76.7549ZM44.6266 28.2026C44.4349 28.3225 44.2767 28.4892 44.1671 28.687C44.0575 28.8848 44 29.1072 44 29.3333V36H28V29.3333C28 29.1072 27.9425 28.8848 27.8329 28.687C27.7233 28.4892 27.5651 28.3225 27.3734 28.2026L22.772 25.3268L25.0481 19.6364L31.3087 21.2015C31.7656 22.0477 32.4428 22.7546 33.2687 23.2472C34.0946 23.7399 35.0383 24 36 24C36.9617 24 37.9054 23.7399 38.7313 23.2472C39.5572 22.7546 40.2344 22.0477 40.6913 21.2015L46.9519 19.6364L49.228 25.3268L44.6266 28.2026ZM33.3333 18.6667V16H38.6667V18.6667C38.6667 19.3739 38.3857 20.0522 37.8856 20.5523C37.3855 21.0524 36.7072 21.3333 36 21.3333C35.2928 21.3333 34.6145 21.0524 34.1144 20.5523C33.6143 20.0522 33.3333 19.3739 33.3333 18.6667ZM64 6.66667H62.041L61.7076 5.33333H64V6.66667ZM52 6.66667V5.33333H53.3333V6.66667H52ZM50.9901 18.6269C51.3331 18.5411 51.6281 18.3226 51.8101 18.0194L55.8101 11.3527C55.9343 11.1454 55.9999 10.9083 56 10.6667V5.33333H58.959L59.9352 9.23844L55.4093 20.5533C55.0955 21.3428 54.5368 22.011 53.8154 22.4597L51.5257 23.8908L49.5628 18.9837L50.9901 18.6269ZM35.9663 10.9583C36.2279 10.784 36.5319 10.6838 36.8459 10.6687C37.16 10.6535 37.4722 10.7239 37.7494 10.8722C38.0266 11.0206 38.2583 11.2414 38.4198 11.5111C38.5814 11.7808 38.6667 12.0893 38.6667 12.4037V13.3333H33.3333V12.7136L35.9663 10.9583ZM20 6.66667H18.6667V5.33333H20V6.66667ZM13.041 5.33333H16V10.6667C16.0001 10.9083 16.0657 11.1454 16.1899 11.3527L20.1899 18.0194C20.3719 18.3226 20.6669 18.5411 21.0099 18.6269L22.4372 18.9837L20.4743 23.8908L18.1846 22.4598C17.4632 22.011 16.9045 21.3428 16.5907 20.5533L12.0648 9.23844L13.041 5.33333ZM10.2924 5.33333L9.95903 6.66667H8V5.33333H10.2924Z" fill="#142537"/>
</svg>
