<svg width="14" height="14" viewBox="0 0 14 14" fill="none" xmlns="http://www.w3.org/2000/svg">
<path d="M12.9996 4.009C12.9998 3.28373 12.7581 2.5791 12.3126 2.00677C11.8671 1.43444 11.2434 1.02712 10.5402 0.849365C9.83708 0.671607 9.09472 0.733569 8.43076 1.02543C7.76681 1.3173 7.21923 1.82238 6.87479 2.46064C6.53035 1.82238 5.98277 1.3173 5.31882 1.02543C4.65486 0.733569 3.9125 0.671607 3.20935 0.849365C2.50619 1.02712 1.88246 1.43444 1.43698 2.00677C0.991496 2.5791 0.749735 3.28373 0.75 4.009C0.75 4.7829 1.02125 5.49259 1.47187 6.0517L1.47076 6.05281L6.87479 12.75L12.2783 6.05281L12.2772 6.0517C12.745 5.47377 13.0001 4.75259 12.9996 4.009V4.009Z" stroke="#566370" stroke-width="1.5" stroke-miterlimit="10" stroke-linejoin="round"/>
</svg>
