<svg width="80" height="80" viewBox="0 0 80 80" fill="none" xmlns="http://www.w3.org/2000/svg">
<path d="M60.0002 38.6673C70.3095 38.6673 78.6668 30.31 78.6668 20.0007C78.6668 9.69133 70.3095 1.33398 60.0002 1.33398C49.6908 1.33398 41.3335 9.69133 41.3335 20.0007C41.3335 30.31 49.6908 38.6673 60.0002 38.6673Z" fill="#FFDE55"/>
<path d="M36.0002 70.6673V78.6673H1.3335V70.6673L13.3335 65.334H24.0002L36.0002 70.6673Z" fill="#FF4768"/>
<path d="M41.3335 49.334H78.6668V78.6673H41.3335V49.334Z" fill="#FFDE55"/>
<path d="M73.3331 19.998H78.6664C78.6739 23.2765 77.8087 26.4978 76.1597 29.3314L71.5464 26.6647C72.7187 24.6386 73.3351 22.3388 73.3331 19.998Z" fill="#FF4768"/>
<path d="M76.1598 10.6665L71.5465 13.3332C70.367 11.3136 68.6861 9.63271 66.6665 8.45318L69.3332 3.83984C72.175 5.46829 74.5314 7.82472 76.1598 10.6665Z" fill="#FF4768"/>
<path d="M66.6667 31.5449L69.3333 36.1583C66.4998 37.8073 63.2784 38.6724 60 38.6649V33.3316C62.3408 33.3336 64.6406 32.7173 66.6667 31.5449Z" fill="#FF4768"/>
<path d="M59.9998 1.33208V6.66541C57.659 6.66338 55.3592 7.27972 53.3332 8.45208L50.6665 3.83875C53.5 2.18975 56.7214 1.32458 59.9998 1.33208Z" fill="#FF4768"/>
<path d="M53.3332 31.546L50.6665 36.1594C47.8247 34.5309 45.4683 32.1745 43.8398 29.3327L48.4532 26.666C49.6327 28.6856 51.3136 30.3665 53.3332 31.546Z" fill="#FF4768"/>
<path d="M43.8397 10.666L48.4531 13.3327C47.2807 15.3587 46.6644 17.6585 46.6664 19.9993H41.3331C41.3256 16.7209 42.1907 13.4996 43.8397 10.666Z" fill="#FF4768"/>
<path d="M25.3333 13.3327V26.666C25.3333 27.3733 25.0524 28.0515 24.5523 28.5516C24.0522 29.0517 23.3739 29.3327 22.6667 29.3327C21.9594 29.3327 21.2811 29.0517 20.781 28.5516C20.281 28.0515 20 27.3733 20 26.666V13.3327C20.0021 12.6261 20.2837 11.949 20.7834 11.4494C21.283 10.9498 21.9601 10.6681 22.6667 10.666C23.3723 10.6712 24.0475 10.9539 24.5465 11.4528C25.0455 11.9518 25.3281 12.6271 25.3333 13.3327Z" fill="#FFDE55"/>
<path d="M19.9998 13.334V26.6673L9.33317 24.534L6.6665 24.0007V16.0007L19.9998 13.334Z" fill="#FF4768"/>
<path d="M9.33333 24.5333V29.3333C9.33122 30.0399 9.04959 30.717 8.54995 31.2166C8.05031 31.7163 7.37326 31.9979 6.66667 32H4V25.3333H6.66667V24L9.33333 24.5333Z" fill="#FFDE55"/>
<path d="M6.66683 23.9993V25.3327H4.00016C3.29357 25.3306 2.61652 25.0489 2.11688 24.5493C1.61724 24.0497 1.33561 23.3726 1.3335 22.666V17.3327C1.33561 16.6261 1.61724 15.949 2.11688 15.4494C2.61652 14.9498 3.29357 14.6681 4.00016 14.666H6.66683V23.9993Z" fill="#FFDE55"/>
<path d="M22.6667 9.33398C21.8063 9.33437 20.9694 9.61408 20.2817 10.1311C19.594 10.648 19.0927 11.3743 18.8533 12.2007L7.94667 14.3873C7.8869 14.0914 7.72698 13.825 7.49385 13.6332C7.26071 13.4413 6.96859 13.3357 6.66667 13.334H4C2.94011 13.3372 1.92453 13.7596 1.17507 14.5091C0.425609 15.2585 0.00316545 16.2741 0 17.334V22.6673C0.00424833 23.4921 0.262521 24.2956 0.739671 24.9684C1.21682 25.6411 1.88967 26.1506 2.66667 26.4273V32.0007C2.66667 32.3543 2.80714 32.6934 3.05719 32.9435C3.30724 33.1935 3.64638 33.334 4 33.334H6.66667C7.72656 33.3308 8.74214 32.9084 9.4916 32.1589C10.2411 31.4095 10.6635 30.3939 10.6667 29.334V26.1607L18.8533 27.8007C19.0927 28.627 19.594 29.3533 20.2817 29.8703C20.9694 30.3872 21.8063 30.6669 22.6667 30.6673C23.7266 30.6642 24.7421 30.2417 25.4916 29.4922C26.2411 28.7428 26.6635 27.7272 26.6667 26.6673V13.334C26.6635 12.2741 26.2411 11.2585 25.4916 10.5091C24.7421 9.75959 23.7266 9.33715 22.6667 9.33398ZM2.66667 22.6673V17.334C2.66667 16.9804 2.80714 16.6412 3.05719 16.3912C3.30724 16.1411 3.64638 16.0007 4 16.0007H5.33333V24.0007H4C3.64638 24.0007 3.30724 23.8602 3.05719 23.6101C2.80714 23.3601 2.66667 23.0209 2.66667 22.6673ZM8 29.334C8 29.6876 7.85952 30.0267 7.60948 30.2768C7.35943 30.5268 7.02029 30.6673 6.66667 30.6673H5.33333V26.6673H6.66667C6.96859 26.6656 7.26071 26.56 7.49385 26.3681C7.72698 26.1763 7.8869 25.9099 7.94667 25.614L8 25.6273V29.334ZM18.6667 25.0407L8 22.9073V17.094L18.6667 14.9607V25.0407ZM24 26.6673C24 27.0209 23.8595 27.3601 23.6095 27.6101C23.3594 27.8602 23.0203 28.0007 22.6667 28.0007C22.313 28.0007 21.9739 27.8602 21.7239 27.6101C21.4738 27.3601 21.3333 27.0209 21.3333 26.6673V13.334C21.3333 12.9804 21.4738 12.6412 21.7239 12.3912C21.9739 12.1411 22.313 12.0007 22.6667 12.0007C23.0203 12.0007 23.3594 12.1411 23.6095 12.3912C23.8595 12.6412 24 12.9804 24 13.334V26.6673Z" fill="#142537"/>
<path d="M29.3335 18.666H37.3335V21.3327H29.3335V18.666Z" fill="#142537"/>
<path d="M28.5957 14.8809L36.5941 9.54538L38.0739 11.7638L30.0755 17.0992L28.5957 14.8809Z" fill="#142537"/>
<path d="M28.6025 25.1172L30.0824 22.8988L38.0808 28.2343L36.6009 30.4527L28.6025 25.1172Z" fill="#142537"/>
<path d="M78.6667 48H41.3333C40.9797 48 40.6406 48.1405 40.3905 48.3905C40.1405 48.6406 40 48.9797 40 49.3333V78.6667C40 79.0203 40.1405 79.3594 40.3905 79.6095C40.6406 79.8595 40.9797 80 41.3333 80H78.6667C79.0203 80 79.3594 79.8595 79.6095 79.6095C79.8595 79.3594 80 79.0203 80 78.6667V49.3333C80 48.9797 79.8595 48.6406 79.6095 48.3905C79.3594 48.1405 79.0203 48 78.6667 48ZM77.3333 77.3333H42.6667V50.6667H77.3333V77.3333Z" fill="#142537"/>
<path d="M72 58.666H74.6667V74.666H72V58.666Z" fill="#142537"/>
<path d="M65.3335 61.334H68.0002V74.6673H65.3335V61.334Z" fill="#142537"/>
<path d="M58.6665 64H61.3332V74.6667H58.6665V64Z" fill="#142537"/>
<path d="M52 66.666H54.6667V74.666H52V66.666Z" fill="#142537"/>
<path d="M51.2188 64.0007H54.6668C54.8862 64.0007 55.1023 63.9465 55.2958 63.843C55.4893 63.7395 55.6543 63.5899 55.7761 63.4073L58.0468 60.0007H66.6668C67.0204 60.0006 67.3595 59.8601 67.6095 59.61L71.2188 56.0007H74.6668V53.334H70.6668C70.3132 53.3341 69.9741 53.4746 69.7241 53.7247L66.1148 57.334H57.3335C57.114 57.334 56.8979 57.3881 56.7044 57.4916C56.5109 57.5951 56.3459 57.7448 56.2241 57.9273L53.9535 61.334H50.6668C50.3132 61.3341 49.9741 61.4746 49.7241 61.7247L45.7241 65.7247L47.6095 67.61L51.2188 64.0007Z" fill="#142537"/>
<path d="M45.3335 69.334H48.0002V74.6673H45.3335V69.334Z" fill="#142537"/>
<path d="M20 49.334H22.6667V52.0007H20V49.334Z" fill="#142537"/>
<path d="M14.6665 49.334H17.3332V52.0007H14.6665V49.334Z" fill="#142537"/>
<path d="M36.5467 69.4527L33.3334 68.026V46.666C33.3284 43.4849 32.0626 40.4356 29.8132 38.1862C27.5638 35.9368 24.5144 34.671 21.3334 34.666H16C12.8181 34.6681 9.76706 35.9331 7.51709 38.1831C5.26711 40.4331 4.00215 43.4841 4.00003 46.666V68.026L0.786694 69.4527C0.551429 69.556 0.351571 69.726 0.211777 69.9416C0.071984 70.1572 -0.00162696 70.4091 2.72809e-05 70.666V78.666C2.72809e-05 79.0196 0.140503 79.3588 0.390552 79.6088C0.6406 79.8589 0.979739 79.9993 1.33336 79.9993H36C36.3536 79.9993 36.6928 79.8589 36.9428 79.6088C37.1929 79.3588 37.3334 79.0196 37.3334 78.666V70.666C37.335 70.4091 37.2614 70.1572 37.1216 69.9416C36.9818 69.726 36.782 69.556 36.5467 69.4527ZM6.66669 46.666C6.6607 45.2207 6.99892 43.7947 7.65336 42.506C8.4214 40.9493 9.61075 39.6392 11.0862 38.7247C12.5617 37.8102 14.2641 37.3279 16 37.3327H21.3334C23.8078 37.3355 26.1802 38.3197 27.9299 40.0695C29.6796 41.8192 30.6639 44.1915 30.6667 46.666V66.8393L24.5467 64.1193C24.2444 63.9803 23.8995 63.9659 23.5867 64.0793L23.16 61.506C24.6245 60.7016 25.8462 59.5188 26.6976 58.0811C27.5489 56.6434 27.9987 55.0035 28 53.3327V45.3327C27.9989 45.1131 27.9435 44.8971 27.8389 44.7041C27.7342 44.511 27.5834 44.3468 27.4 44.226L23.4 41.5593C23.2515 41.4579 23.0839 41.3878 22.9073 41.3534C22.7308 41.319 22.5491 41.3211 22.3734 41.3593L10.3734 44.026C10.0788 44.0961 9.81631 44.2629 9.62778 44.4998C9.43924 44.7367 9.33558 45.0299 9.33336 45.3327V53.3327C9.33465 55.0035 9.78445 56.6434 10.6358 58.0811C11.4872 59.5188 12.7089 60.7016 14.1734 61.506L13.7467 64.0793C13.4339 63.9659 13.089 63.9803 12.7867 64.1193L6.66669 66.8393V46.666ZM18.6667 59.9993C16.8986 59.9993 15.2029 59.297 13.9526 58.0467C12.7024 56.7965 12 55.1008 12 53.3327V46.3993L22.4 44.0927L25.3334 46.0527V53.3327C25.3334 55.1008 24.631 56.7965 23.3807 58.0467C22.1305 59.297 20.4348 59.9993 18.6667 59.9993ZM21.24 66.2127L18.6667 68.786L16.0934 66.2127L16.72 62.4527C18.0022 62.7371 19.3312 62.7371 20.6134 62.4527L21.24 66.2127ZM34.6667 77.3327H2.66669V71.5327L13.04 66.9193L17.72 71.6127C17.9718 71.8625 18.312 72.0027 18.6667 72.0027C19.0213 72.0027 19.3616 71.8625 19.6134 71.6127L24.2934 66.9193L34.6667 71.5327V77.3327Z" fill="#142537"/>
<path d="M60 0C56.0444 0 52.1776 1.17298 48.8886 3.37061C45.5996 5.56824 43.0362 8.69181 41.5224 12.3463C40.0087 16.0009 39.6126 20.0222 40.3843 23.9018C41.156 27.7814 43.0608 31.3451 45.8579 34.1421C48.6549 36.9392 52.2186 38.844 56.0982 39.6157C59.9778 40.3874 63.9992 39.9913 67.6537 38.4776C71.3082 36.9638 74.4318 34.4004 76.6294 31.1114C78.827 27.8224 80 23.9556 80 20C79.9937 14.6976 77.8845 9.61423 74.1351 5.86488C70.3858 2.11553 65.3024 0.00635143 60 0ZM77.2667 18.6667H74.6C74.4429 17.0051 74.0056 15.3822 73.3067 13.8667L75.6133 12.52C76.5385 14.4495 77.099 16.5334 77.2667 18.6667ZM69.7867 5.70667C71.5498 6.92312 73.0769 8.45021 74.2933 10.2133L71.9733 11.5467C71.0013 10.188 69.812 8.9987 68.4533 8.02667L69.7867 5.70667ZM61.3333 2.73333C63.4666 2.90097 65.5505 3.46149 67.48 4.38667L66.1333 6.69333C64.6178 5.9944 62.9949 5.55711 61.3333 5.4V2.73333ZM58.6667 2.73333V5.4C57.0051 5.55711 55.3822 5.9944 53.8667 6.69333L52.52 4.38667C54.4495 3.46149 56.5334 2.90097 58.6667 2.73333ZM50.2133 5.70667L51.5467 8.02667C50.188 8.9987 48.9987 10.188 48.0267 11.5467L45.7067 10.2133C46.9231 8.45021 48.4502 6.92312 50.2133 5.70667ZM44.3867 12.52L46.6933 13.8667C45.9944 15.3822 45.5571 17.0051 45.4 18.6667H42.7333C42.901 16.5334 43.4615 14.4495 44.3867 12.52ZM42.7333 21.3333H45.4C45.5571 22.9949 45.9944 24.6178 46.6933 26.1333L44.3867 27.48C43.4615 25.5505 42.901 23.4666 42.7333 21.3333ZM50.2133 34.2933C48.4502 33.0769 46.9231 31.5498 45.7067 29.7867L48.0267 28.4533C48.9987 29.812 50.188 31.0013 51.5467 31.9733L50.2133 34.2933ZM58.6667 37.2667C56.5334 37.099 54.4495 36.5385 52.52 35.6133L53.8667 33.3067C55.3822 34.0056 57.0051 34.4429 58.6667 34.6V37.2667ZM48 20C48 17.6266 48.7038 15.3065 50.0224 13.3332C51.341 11.3598 53.2151 9.8217 55.4078 8.91345C57.6005 8.00519 60.0133 7.76755 62.3411 8.23058C64.6689 8.6936 66.8071 9.83649 68.4853 11.5147C70.1635 13.1929 71.3064 15.3311 71.7694 17.6589C72.2325 19.9867 71.9948 22.3995 71.0866 24.5922C70.1783 26.7849 68.6402 28.6591 66.6669 29.9776C64.6935 31.2962 62.3734 32 60 32C56.8189 31.9951 53.7696 30.7292 51.5202 28.4798C49.2708 26.2305 48.0049 23.1811 48 20ZM61.3333 37.2667V34.6C62.9949 34.4429 64.6178 34.0056 66.1333 33.3067L67.48 35.6133C65.5505 36.5385 63.4666 37.099 61.3333 37.2667ZM69.7867 34.2933L68.4533 31.9733C69.812 31.0013 71.0013 29.812 71.9733 28.4533L74.2933 29.7867C73.0769 31.5498 71.5498 33.0769 69.7867 34.2933ZM75.6133 27.48L73.3067 26.1333C74.0056 24.6178 74.4429 22.9949 74.6 21.3333H77.2667C77.099 23.4666 76.5385 25.5505 75.6133 27.48Z" fill="#142537"/>
<path d="M61.3333 10.666H58.6667V13.3327C57.9594 13.3327 57.2811 13.6136 56.781 14.1137C56.2809 14.6138 56 15.2921 56 15.9993V18.666C56 19.3733 56.2809 20.0515 56.781 20.5516C57.2811 21.0517 57.9594 21.3327 58.6667 21.3327H61.3333V23.9993H56V26.666H58.6667V29.3327H61.3333V26.666C62.0406 26.666 62.7189 26.3851 63.219 25.885C63.7191 25.3849 64 24.7066 64 23.9993V21.3327C64 20.6254 63.7191 19.9472 63.219 19.4471C62.7189 18.947 62.0406 18.666 61.3333 18.666H58.6667V15.9993H64V13.3327H61.3333V10.666Z" fill="#142537"/>
</svg>
