<svg width="80" height="80" viewBox="0 0 80 80" fill="none" xmlns="http://www.w3.org/2000/svg">
<path d="M36.5625 48.4382L14.0625 54.8515V46.0676L36.5625 39.6543V48.4382Z" fill="#FF4768"/>
<path d="M7.8125 78.4395C11.2643 78.4395 14.0625 75.6412 14.0625 72.1895C14.0625 68.7377 11.2643 65.9395 7.8125 65.9395C4.36072 65.9395 1.5625 68.7377 1.5625 72.1895C1.5625 75.6412 4.36072 78.4395 7.8125 78.4395Z" fill="#FF4768"/>
<path d="M30.3125 72.0254C33.7643 72.0254 36.5625 69.2272 36.5625 65.7754C36.5625 62.3236 33.7643 59.5254 30.3125 59.5254C26.8607 59.5254 24.0625 62.3236 24.0625 65.7754C24.0625 69.2272 26.8607 72.0254 30.3125 72.0254Z" fill="#FF4768"/>
<path d="M62.124 15.0478L78.4378 10.3464V1.5625L62.124 6.26391V15.0478Z" fill="#FF4768"/>
<path d="M55.874 38.6348C59.3258 38.6348 62.124 35.8365 62.124 32.3848C62.124 28.933 59.3258 26.1348 55.874 26.1348C52.4222 26.1348 49.624 28.933 49.624 32.3848C49.624 35.8365 52.4222 38.6348 55.874 38.6348Z" fill="#FF4768"/>
<path d="M61.3656 66.3291L53.8902 70.2593L55.3178 61.9352L49.27 56.0401L57.6278 54.8255L61.3656 47.252L65.1035 54.8255L73.4613 56.0401L67.4135 61.9352L68.8413 70.2593L61.3656 66.3291Z" fill="#FFDE55"/>
<path d="M11.7449 17.2378L5.6024 20.467L6.77553 13.6273L1.80615 8.78344L8.67365 7.78547L11.7449 1.5625L14.8162 7.78547L21.6837 8.78344L16.7143 13.6273L17.8874 20.467L11.7449 17.2378Z" fill="#FFDE55"/>
<path d="M36.5625 38.0918C36.4139 38.0918 36.2706 38.1138 36.1345 38.1526L36.1342 38.1515L31.6464 39.4307C30.8166 39.6673 30.3355 40.5318 30.572 41.3616C30.7678 42.0485 31.3936 42.4962 32.0739 42.4962C32.2156 42.4962 32.3598 42.4766 32.503 42.436L35 41.7245V47.2588L15.625 52.7815V47.2471L18.9788 46.2912C19.8086 46.0546 20.2897 45.1901 20.0531 44.3602C19.8166 43.5304 18.9523 43.0498 18.1222 43.2859L13.6342 44.5651L13.6344 44.5662C12.9798 44.7526 12.5 45.3535 12.5 46.0677V65.9426C11.1933 64.9593 9.57 64.3757 7.8125 64.3757C3.50469 64.3757 0 67.8804 0 72.1882C0 76.496 3.50469 80.0007 7.8125 80.0007C12.1203 80.0007 15.625 76.496 15.625 72.1882V56.031L35 50.5084V59.5291C33.6933 58.546 32.07 57.9624 30.3125 57.9624C26.0047 57.9624 22.5 61.4671 22.5 65.7749C22.5 70.0827 26.0047 73.5874 30.3125 73.5874C34.6203 73.5874 38.125 70.0827 38.125 65.7749V39.6543C38.125 38.7913 37.4255 38.0918 36.5625 38.0918ZM7.8125 76.8757C5.22781 76.8757 3.125 74.7729 3.125 72.1882C3.125 69.6035 5.22781 67.5007 7.8125 67.5007C10.3972 67.5007 12.5 69.6035 12.5 72.1882C12.5 74.7729 10.3972 76.8757 7.8125 76.8757ZM30.3125 70.4624C27.7278 70.4624 25.625 68.3596 25.625 65.7749C25.625 63.1902 27.7278 61.0874 30.3125 61.0874C32.8972 61.0874 35 63.1902 35 65.7749C35 68.3596 32.8972 70.4624 30.3125 70.4624Z" fill="#142537"/>
<path d="M79.3768 0.313924C78.9845 0.0187678 78.4763 -0.0746697 78.0046 0.0609553L61.6909 4.76236C61.0218 4.95517 60.561 5.56736 60.561 6.26377V26.1386C59.2543 25.1555 57.631 24.5719 55.8735 24.5719C51.5657 24.5719 48.061 28.0766 48.061 32.3844C48.061 36.6922 51.5657 40.1969 55.8735 40.1969C60.1813 40.1969 63.686 36.6922 63.686 32.3844V16.2235L78.8699 11.8477C79.539 11.6549 79.9998 11.0427 79.9998 10.3463V1.56236C79.9998 1.07142 79.769 0.60908 79.3768 0.313924ZM55.8735 37.0719C53.2888 37.0719 51.186 34.9691 51.186 32.3844C51.186 29.7997 53.2888 27.6969 55.8735 27.6969C58.4582 27.6969 60.561 29.7997 60.561 32.3844C60.561 34.9691 58.4582 37.0719 55.8735 37.0719ZM76.8748 9.17049L63.686 12.9713V7.43955L76.8748 3.63877V9.17049Z" fill="#142537"/>
<path d="M73.6861 54.4937L66.1411 53.3973L62.7669 46.5604C62.5036 46.0271 61.9605 45.6895 61.3658 45.6895C60.7711 45.6895 60.2278 46.0271 59.9647 46.5604L56.5905 53.3973L49.0455 54.4937C48.4569 54.5791 47.968 54.9915 47.7841 55.5571C47.6002 56.1227 47.7536 56.7437 48.1796 57.1588L53.6391 62.4807L52.3502 69.9952C52.2495 70.5813 52.4905 71.1738 52.9717 71.5235C53.4528 71.8729 54.0908 71.9191 54.6172 71.6424L61.3656 68.0945L68.1141 71.6423C68.3427 71.7626 68.5924 71.8218 68.841 71.8218C69.1649 71.8218 69.4874 71.7212 69.7596 71.5234C70.2408 71.1738 70.4817 70.5813 70.3811 69.9951L69.0922 62.4805L74.5517 57.1587C74.9777 56.7435 75.131 56.1226 74.9472 55.5569C74.7635 54.9913 74.2747 54.5791 73.6861 54.4937ZM66.323 60.8162C65.9547 61.1751 65.7866 61.6923 65.8736 62.1991L66.7661 67.4029L62.0928 64.946C61.6377 64.7066 61.0939 64.7066 60.6386 64.946L55.9653 67.4029L56.8578 62.1991C56.9449 61.6923 56.7767 61.1751 56.4085 60.8162L52.6278 57.1309L57.8527 56.3716C58.3616 56.2977 58.8016 55.978 59.0291 55.517L61.3658 50.7824L63.7024 55.517C63.93 55.978 64.3699 56.2977 64.8788 56.3716L70.1036 57.1309L66.323 60.8162Z" fill="#142537"/>
<path d="M5.09693 14.1728L4.06256 20.203C3.96193 20.7891 4.20287 21.3816 4.68412 21.7313C5.16521 22.0808 5.80334 22.127 6.32959 21.8502L11.7449 19.0031L17.1604 21.8502C17.389 21.9703 17.6387 22.0295 17.8872 22.0295C18.2112 22.0295 18.5337 21.9289 18.8058 21.7311C19.2871 21.3814 19.528 20.7891 19.4274 20.2028L18.393 14.1727L22.7743 9.90219C23.2002 9.48703 23.3535 8.86609 23.1697 8.30047C22.986 7.73484 22.4969 7.32266 21.9083 7.23703L15.8537 6.35719L13.1462 0.870937C12.883 0.337656 12.3399 0 11.7451 0C11.1502 0 10.6071 0.337656 10.344 0.870937L7.63631 6.35734L1.58162 7.23719C0.993026 7.32266 0.50412 7.735 0.320214 8.30062C0.136308 8.86625 0.289745 9.48719 0.715683 9.90234L5.09693 14.1728ZM8.8985 9.33172C9.4074 9.25781 9.8474 8.93812 10.0749 8.47703L11.7449 5.09313L13.4149 8.47703C13.6426 8.93812 14.0824 9.25781 14.5913 9.33172L18.3257 9.87437L15.6238 12.5084C15.2555 12.8675 15.0874 13.3847 15.1744 13.8916L15.8124 17.6109L12.4722 15.855C12.2446 15.7353 11.9949 15.6755 11.7452 15.6755C11.4954 15.6755 11.2457 15.7353 11.0182 15.855L7.67803 17.6109L8.316 13.8916C8.40303 13.3847 8.2349 12.8675 7.86662 12.5084L5.16412 9.87437L8.8985 9.33172Z" fill="#142537"/>
<path d="M36.5625 13.4863C35.6995 13.4863 35 14.1859 35 15.0488V16.6113C35 17.4743 35.6995 18.1738 36.5625 18.1738C37.4255 18.1738 38.125 17.4743 38.125 16.6113V15.0488C38.125 14.1859 37.4255 13.4863 36.5625 13.4863Z" fill="#142537"/>
<path d="M36.5625 24.4238C35.6995 24.4238 35 25.1234 35 25.9863V27.5488C35 28.4118 35.6995 29.1113 36.5625 29.1113C37.4255 29.1113 38.125 28.4118 38.125 27.5488V25.9863C38.125 25.1234 37.4255 24.4238 36.5625 24.4238Z" fill="#142537"/>
<path d="M42.8125 19.7363H41.25C40.387 19.7363 39.6875 20.4359 39.6875 21.2988C39.6875 22.1618 40.387 22.8613 41.25 22.8613H42.8125C43.6755 22.8613 44.375 22.1618 44.375 21.2988C44.375 20.4359 43.6755 19.7363 42.8125 19.7363Z" fill="#142537"/>
<path d="M30.3125 22.8613H31.875C32.738 22.8613 33.4375 22.1618 33.4375 21.2988C33.4375 20.4359 32.738 19.7363 31.875 19.7363H30.3125C29.4495 19.7363 28.75 20.4359 28.75 21.2988C28.75 22.1618 29.4495 22.8613 30.3125 22.8613Z" fill="#142537"/>
<path d="M25.3125 44.4238C25.7234 44.4238 26.1266 44.2566 26.4172 43.966C26.7078 43.6754 26.875 43.2723 26.875 42.8613C26.875 42.4488 26.7078 42.0473 26.4172 41.7551C26.1266 41.4645 25.7234 41.2988 25.3125 41.2988C24.9016 41.2988 24.4984 41.4645 24.2078 41.7551C23.9172 42.0473 23.75 42.4488 23.75 42.8613C23.75 43.2723 23.9172 43.6754 24.2078 43.966C24.4984 44.2566 24.9016 44.4238 25.3125 44.4238Z" fill="#142537"/>
</svg>
