<svg width="80" height="80" viewBox="0 0 80 80" fill="none" xmlns="http://www.w3.org/2000/svg">
<path d="M34.6668 77.334C33.9304 77.334 33.3335 77.931 33.3335 78.6673C33.3335 79.4037 33.9305 80.0005 34.6668 80.0005H45.3335C46.0699 80.0005 46.6668 79.4035 46.6668 78.6673C46.6668 77.9309 46.0698 77.334 45.3335 77.334H34.6668Z" fill="#509AF2"/>
<path d="M28.1486 55.4197C27.5485 59.1326 28.7285 62.9117 31.3349 65.6234C32.6294 66.9823 33.346 68.7908 33.3335 70.6677C33.3358 72.8758 35.1253 74.6653 37.3335 74.6677H42.6667C44.8749 74.6653 46.6644 72.8758 46.6667 70.6677C46.6419 68.81 47.3436 67.0159 48.6225 65.6683C50.8925 63.3251 52.1094 60.1581 51.9924 56.898C51.8755 53.6378 50.4347 50.5661 48.0027 48.3916C44.7335 45.4655 40.1283 44.5562 35.9924 46.0201C31.8564 47.4844 28.8488 51.0884 28.1486 55.4197ZM40.0119 48.0005C42.306 47.9933 44.5203 48.8412 46.2228 50.3786C48.1147 52.0687 49.2358 54.457 49.3274 56.9922C49.4191 59.5273 48.4733 61.9905 46.7085 63.8128C44.9453 65.6566 43.9733 68.1167 44.0002 70.6677C43.9994 71.4037 43.403 72.0003 42.6669 72.0009H37.3336C36.5972 71.9998 36.0006 71.4027 36.0003 70.6662C36.0141 68.1017 35.0314 65.6322 33.2594 63.7783C30.8056 61.2209 30.0141 57.4934 31.2169 54.1597C32.4197 50.8259 35.4088 48.4623 38.93 48.0608C39.2891 48.0208 39.6503 48.0006 40.0119 48.0005Z" fill="#509AF2"/>
<path d="M62.6668 8C57.5121 8 53.3335 12.1788 53.3335 17.3333C53.3335 22.4878 57.5122 26.6666 62.6668 26.6666C67.8213 26.6666 72.0001 22.4878 72.0001 17.3333C71.9941 12.1811 67.819 8.00594 62.6668 8ZM62.6668 24C58.9849 24 56.0001 21.0152 56.0001 17.3333C56.0001 13.6514 58.9849 10.6666 62.6668 10.6666C66.3487 10.6666 69.3335 13.6514 69.3335 17.3333C69.3291 21.0134 66.3469 23.9956 62.6668 24Z" fill="#509AF2"/>
<path d="M77.8073 13.3334H76.78C76.4675 12.2368 76.0283 11.1806 75.4714 10.1856L76.2006 9.45575C77.0561 8.59918 77.0561 7.21153 76.2006 6.35481L73.6459 3.7995C72.7786 2.96981 71.412 2.9695 70.5444 3.79887L69.8139 4.52871C68.8197 3.97106 67.7633 3.53215 66.6667 3.22075V2.19278C66.6655 0.982307 65.6845 0.00121256 64.4741 0.000118811H60.8595C59.649 0.00136881 58.668 0.982307 58.6669 2.19278V3.22075C57.5703 3.53231 56.514 3.97137 55.5197 4.52871L54.788 3.79762C53.9203 2.97059 52.5559 2.97106 51.689 3.79903L49.1331 6.35497C48.2776 7.21153 48.2776 8.59919 49.1331 9.4559L49.8623 10.1858C49.3054 11.1806 48.8662 12.237 48.5537 13.3334H47.5264C46.3159 13.3347 45.335 14.3156 45.3337 15.5261V16H34.5995C33.8937 6.80231 26.1048 -0.229725 16.8829 0.00574381C7.66105 0.241213 0.241049 7.66122 0.00573643 16.8829C-0.229576 26.1047 6.8023 33.8937 16.0001 34.5992V54.6667C16.0025 56.8748 17.792 58.6644 20.0001 58.6667H24.0001C24.7365 58.6667 25.3334 58.0698 25.3334 57.3334C25.3334 56.597 24.7364 56.0001 24.0001 56.0001H20.0001C19.264 55.9994 18.6675 55.403 18.6668 54.6669V34.5992C27.175 33.9333 33.9334 27.175 34.5993 18.6667H45.3336V19.1406C45.3348 20.3511 46.3158 21.3322 47.5262 21.3333H48.5536C48.8661 22.4298 49.3053 23.4861 49.8622 24.4811L49.1329 25.2109C48.2775 26.0675 48.2775 27.4551 49.1329 28.3118L51.6876 30.8672C52.555 31.6969 53.9215 31.697 54.7892 30.8678L55.5197 30.1379C56.5139 30.6956 57.5703 31.1345 58.6669 31.4459V32.4739C58.6681 33.6844 59.649 34.6654 60.8595 34.6665H61.3334V54.6665C61.3326 55.4026 60.7362 55.9992 60.0001 55.9998H56.0001C55.2637 55.9998 54.6669 56.5967 54.6669 57.3331C54.6669 58.0695 55.2637 58.6664 56.0001 58.6664H60.0001C62.2083 58.6641 63.9978 56.8745 64.0001 54.6664V34.6664H64.4741C65.6845 34.6651 66.6656 33.6842 66.6667 32.4737V31.4458C67.7633 31.1345 68.8197 30.6954 69.8139 30.1378L70.5456 30.8689C71.4133 31.6959 72.7776 31.6954 73.6445 30.8675L76.2005 28.3115C77.0559 27.455 77.0559 26.0673 76.2005 25.2106L75.4712 24.4808C76.0281 23.4859 76.4673 22.4295 76.7798 21.3329H77.8072C79.0177 21.3317 79.9986 20.3508 79.9998 19.1403V15.5261C79.9989 14.3156 79.018 13.3347 77.8073 13.3334ZM17.3334 32.0001C9.23324 32.0001 2.66668 25.4336 2.66668 17.3334C2.66668 9.23325 9.23324 2.66668 17.3334 2.66668C25.4336 2.66668 32.0001 9.23325 32.0001 17.3334C31.9909 25.4298 25.4298 31.9909 17.3334 32.0001ZM77.3334 18.6667H76.4064C75.405 18.6726 74.5342 19.3551 74.2892 20.3262C74.008 21.417 73.5736 22.4623 72.9989 23.4311C72.4834 24.2909 72.6164 25.3908 73.3219 26.1029L73.9808 26.7611L72.0941 28.6472L71.4378 27.9903C70.7261 27.2831 69.625 27.1492 68.7647 27.6654C67.7966 28.24 66.7519 28.6744 65.6619 28.9558C64.6892 29.1992 64.0053 30.0709 64.0003 31.0736V32H61.3336V31.0736C61.3289 30.0714 60.6455 29.2 59.6734 28.9564C58.5834 28.6748 57.5387 28.2404 56.5706 27.6661C55.7108 27.1486 54.6092 27.2815 53.8975 27.989L53.24 28.6472L51.3533 26.7611L52.0122 26.1029C52.7176 25.3908 52.8505 24.2909 52.3351 23.4311C51.7603 22.4622 51.3259 21.4165 51.0448 20.3256C50.7995 19.3548 49.9289 18.6726 48.9276 18.6667H48.0006V16H48.9276C49.929 15.994 50.7998 15.3115 51.0448 14.3404C51.3261 13.2497 51.7605 12.2043 52.3353 11.2356C52.8508 10.3757 52.7178 9.2759 52.0123 8.56372L51.3534 7.90559L53.2401 6.0195L53.8964 6.67637C54.608 7.38387 55.7092 7.51778 56.5695 7.00122C57.5376 6.42668 58.5823 5.99231 59.6723 5.7109C60.645 5.46746 61.3289 4.59575 61.3337 3.59309V2.66668H64.0005V3.59309C64.0051 4.59528 64.6886 5.46668 65.6606 5.71028C66.7515 5.99215 67.797 6.427 68.7661 7.002C69.6259 7.51653 70.725 7.38309 71.4367 6.67778L72.0942 6.01965L73.9809 7.90575L73.322 8.56387C72.6166 9.27606 72.4837 10.3759 72.9992 11.2357C73.5741 12.2047 74.0084 13.2503 74.2895 14.3412C74.5348 15.312 75.4055 15.9942 76.4067 16.0001H77.3337V18.6667H77.3334Z" fill="#509AF2"/>
<path d="M17.3335 5.33398C10.7062 5.33398 5.3335 10.7066 5.3335 17.334C5.3335 23.9613 10.7062 29.334 17.3335 29.334C23.9608 29.334 29.3335 23.9613 29.3335 17.334C29.326 10.7096 23.9579 5.34148 17.3335 5.33398ZM17.3335 26.6673C12.1788 26.6673 8.00022 22.4885 8.00022 17.334C8.00022 12.1795 12.179 8.0007 17.3335 8.0007C22.488 8.0007 26.6668 12.1795 26.6668 17.334C26.6609 22.4862 22.4857 26.6613 17.3335 26.6673Z" fill="#509AF2"/>
<path d="M18.6666 16.7806V11.9993C18.6666 11.2629 18.0695 10.666 17.3333 10.666C16.5969 10.666 16 11.2629 16 11.9993V17.3326C16.0002 17.6862 16.1406 18.0252 16.3906 18.2752L19.0573 20.942C19.5794 21.4546 20.4169 21.4507 20.9342 20.9335C21.4516 20.4162 21.4553 19.5787 20.9427 19.0566L18.6666 16.7806Z" fill="#509AF2"/>
<path d="M41.3336 41.3333V37.3333C41.3336 36.5969 40.7365 36 40.0003 36C39.2639 36 38.667 36.597 38.667 37.3333V41.3333C38.667 42.0697 39.264 42.6666 40.0003 42.6666C40.7367 42.6666 41.3336 42.0697 41.3336 41.3333Z" fill="#509AF2"/>
<path d="M26.8009 42.2496C26.4643 41.9117 25.9729 41.7796 25.5123 41.9027C25.0517 42.0258 24.6918 42.3856 24.5687 42.8463C24.4456 43.3069 24.5778 43.7983 24.9156 44.1349L27.7437 46.963C28.0806 47.2997 28.5714 47.4313 29.0315 47.308C29.4915 47.1847 29.8509 46.8253 29.9742 46.3653C30.0974 45.9053 29.9659 45.4144 29.6292 45.0775L26.8009 42.2496Z" fill="#509AF2"/>
<path d="M55.0849 42.248C54.8349 41.9979 54.4958 41.8574 54.1422 41.8574C53.7886 41.8574 53.4494 41.9979 53.1996 42.248L50.3714 45.0762C50.0346 45.413 49.9032 45.9038 50.0264 46.364C50.1497 46.824 50.5091 47.1834 50.9691 47.3066C51.4291 47.4299 51.92 47.2984 52.2569 46.9616L55.085 44.1335C55.3352 43.8835 55.4757 43.5445 55.4757 43.1909C55.4757 42.8373 55.335 42.498 55.0849 42.248Z" fill="#509AF2"/>
<path d="M24.9152 72.4185C25.1652 72.6687 25.5043 72.8091 25.8579 72.8091C26.2114 72.8091 26.5507 72.6687 26.8005 72.4185L29.6286 69.5904C29.9655 69.2535 30.0969 68.7627 29.9736 68.3026C29.8504 67.8426 29.491 67.4832 29.031 67.3599C28.571 67.2366 28.08 67.3682 27.7432 67.7049L24.915 70.533C24.6649 70.783 24.5244 71.1221 24.5244 71.4757C24.5244 71.8293 24.665 72.1685 24.9152 72.4185Z" fill="#509AF2"/>
<path d="M50.3711 67.7051C50.1209 67.9551 49.9805 68.2941 49.9805 68.6477C49.9805 69.0013 50.1209 69.3404 50.3711 69.5904L53.1992 72.4185C53.7202 72.9376 54.563 72.937 55.083 72.417C55.603 71.897 55.6038 71.0541 55.0845 70.5332L52.2564 67.7051C52.0064 67.4549 51.6673 67.3145 51.3137 67.3145C50.9602 67.3145 50.6211 67.4549 50.3711 67.7051Z" fill="#509AF2"/>
<path d="M78.6667 19.1391V15.5244C78.6667 15.0498 78.282 14.6652 77.8075 14.6652H76.4067C76.0128 14.6613 75.6721 14.3897 75.5807 14.0066C75.2681 12.7941 74.785 11.632 74.1459 10.5552C73.9393 10.2194 73.9884 9.78594 74.265 9.50485L75.2582 8.51141C75.5939 8.17578 75.5939 7.63172 75.2582 7.29625L72.7023 4.74031C72.5412 4.57922 72.3226 4.4886 72.0946 4.4886C71.8667 4.4886 71.6482 4.57906 71.487 4.74031L70.4935 5.73375C70.2126 6.01031 69.779 6.05953 69.4432 5.85282C68.3664 5.21375 67.2043 4.73063 65.9918 4.41797C65.6087 4.32656 65.337 3.98594 65.3332 3.59203V2.19125C65.3332 1.71672 64.9485 1.33203 64.474 1.33203H60.8593C60.3848 1.33203 60.0001 1.71672 60.0001 2.19125V3.59203C59.9962 3.98594 59.7246 4.32656 59.3415 4.41797C58.129 4.73063 56.967 5.21375 55.8901 5.85282C55.5543 6.05953 55.1209 6.01031 54.8398 5.73375L53.8464 4.74031C53.6853 4.57922 53.4667 4.4886 53.2387 4.4886C53.0107 4.4886 52.7923 4.57906 52.631 4.74031L50.0751 7.29625C49.7395 7.63188 49.7395 8.17594 50.0751 8.51141L51.0684 9.50485C51.3449 9.78579 51.3942 10.2192 51.1874 10.5552C50.5484 11.632 50.0654 12.7941 49.7526 14.0066C49.6612 14.3897 49.3206 14.6614 48.9267 14.6653H47.5259C47.2979 14.6653 47.0795 14.7558 46.9182 14.917C46.7571 15.0781 46.6665 15.2967 46.6665 15.5247V19.1394C46.6665 19.6139 47.0512 19.9986 47.5257 19.9986H48.9265C49.3204 20.0025 49.661 20.2741 49.7524 20.6572C50.0651 21.8697 50.5482 23.0317 51.1873 24.1086C51.3939 24.4444 51.3448 24.8778 51.0682 25.1589L50.0749 26.1524C49.7393 26.488 49.7393 27.032 50.0749 27.3675L52.6309 29.9235C52.792 30.0845 53.0106 30.1752 53.2385 30.1752C53.4665 30.1752 53.6849 30.0847 53.8462 29.9235L54.8396 28.93C55.1206 28.6535 55.5542 28.6042 55.89 28.811C56.9668 29.45 58.1289 29.9331 59.3414 30.246C59.7245 30.3374 59.9962 30.678 60 31.0719V32.4725C60 32.7005 60.0904 32.9189 60.2517 33.0802C60.4128 33.2413 60.6314 33.3319 60.8593 33.3319H64.474C64.9485 33.3319 65.3332 32.9472 65.3332 32.4727V31.0719C65.3371 30.678 65.6087 30.3374 65.9918 30.246C67.2043 29.9333 68.3664 29.4502 69.4432 28.8111C69.779 28.6044 70.2125 28.6536 70.4935 28.9302L71.487 29.9236C71.6481 30.0847 71.8667 30.1753 72.0946 30.1753C72.3226 30.1753 72.5411 30.0849 72.7023 29.9236L75.2582 27.3677C75.5939 27.032 75.5939 26.488 75.2582 26.1525L74.265 25.1591C73.9884 24.8781 73.9392 24.4445 74.1459 24.1088C74.785 23.0319 75.2679 21.8699 75.5806 20.6574C75.672 20.2742 76.0128 20.0025 76.4067 19.9988H77.8075C78.282 19.9984 78.6667 19.6136 78.6667 19.1391Z" fill="#FFDE55"/>
<path d="M50.6669 57.3325C50.6708 60.0961 49.5943 62.7518 47.6669 64.7325C46.1501 66.3334 45.3137 68.4604 45.3337 70.6657C45.3293 72.1367 44.1379 73.3281 42.6669 73.3325H37.2268C35.8016 73.2626 34.6785 72.0926 34.6669 70.6657C34.6701 68.4442 33.8205 66.3061 32.2936 64.6925C29.5897 61.8712 28.6472 57.7962 29.8379 54.0742C31.0285 50.3521 34.161 47.5807 38.0004 46.8525C38.2604 46.7984 38.5229 46.7584 38.7871 46.7325C41.8076 46.389 44.8312 47.3498 47.0993 49.3737C49.3676 51.3976 50.6654 54.2926 50.6669 57.3325Z" fill="#FF4768"/>
<path d="M46.6669 57.3316C46.6708 60.0952 45.5943 62.7509 43.6669 64.7316C42.1501 66.3325 41.3137 68.4595 41.3337 70.6649C41.3293 72.1358 40.1379 73.3272 38.6669 73.3316H37.2268C35.8016 73.2617 34.6785 72.0917 34.6669 70.6649C34.6701 68.4433 33.8205 66.3052 32.2936 64.6916C29.5897 61.8703 28.6472 57.7953 29.8379 54.0733C31.0285 50.3513 34.161 47.5798 38.0004 46.8516C43.0305 47.8113 46.6688 52.2106 46.6669 57.3316Z" fill="#FF4768"/>
<path d="M62.6665 25.332C67.0848 25.332 70.6665 21.7503 70.6665 17.332C70.6665 12.9138 67.0848 9.33203 62.6665 9.33203C58.2482 9.33203 54.6665 12.9138 54.6665 17.332C54.6665 21.7503 58.2482 25.332 62.6665 25.332Z" fill="white"/>
<path d="M33.3332 17.3322C33.3343 21.5759 31.649 25.6464 28.6482 28.6472C25.6474 31.648 21.5769 33.3333 17.3332 33.3322C16.6643 33.3352 15.9958 33.2906 15.3332 33.1989C7.33411 32.1952 1.33301 25.3941 1.33301 17.3322C1.33301 9.2703 7.33411 2.4692 15.3332 1.46545C15.9958 1.37373 16.6643 1.3292 17.3332 1.33217C21.5769 1.33108 25.6474 3.01639 28.6482 6.01717C31.649 9.01796 33.3344 13.0884 33.3332 17.3322Z" fill="#FFDE55"/>
<path d="M15.3335 33.1983C23.0655 33.1983 29.3335 26.0945 29.3335 17.3316C29.3335 8.56862 23.0655 1.46484 15.3335 1.46484C7.60151 1.46484 1.3335 8.56862 1.3335 17.3316C1.3335 26.0945 7.60151 33.1983 15.3335 33.1983Z" fill="#FFDE55"/>
<path d="M17.3332 27.9995C23.2243 27.9995 28 23.2238 28 17.3327C28 11.4417 23.2243 6.66602 17.3332 6.66602C11.4422 6.66602 6.6665 11.4417 6.6665 17.3327C6.6665 23.2238 11.4422 27.9995 17.3332 27.9995Z" fill="white"/>
<path d="M78.6669 15.5196V19.1463C78.6636 19.6162 78.2834 19.9963 77.8136 19.9996H76.4003C76.012 20.007 75.6778 20.2754 75.5869 20.6529C75.2708 21.8657 74.7861 23.0281 74.147 24.1062C73.9417 24.4435 73.9911 24.8771 74.267 25.1595L75.2537 26.1595C75.4198 26.3176 75.5138 26.5368 75.5138 26.7662C75.5138 26.9954 75.4197 27.2148 75.2537 27.3729L72.707 29.9196C72.5489 30.0857 72.3297 30.1796 72.1003 30.1796C71.8709 30.1796 71.6517 30.0857 71.4936 29.9196L70.4936 28.9329C70.348 28.779 70.1453 28.6921 69.9336 28.6929L71.2536 27.3729C71.4197 27.2148 71.5136 26.9956 71.5136 26.7662C71.5136 26.537 71.4195 26.3176 71.2536 26.1595L70.2669 25.1595C69.9909 24.877 69.9416 24.4434 70.1469 24.1062C70.7859 23.0281 71.2706 21.8656 71.5869 20.6529C71.6778 20.2754 72.0122 20.007 72.4003 19.9996H73.8136C74.2834 19.9963 74.6636 19.6162 74.6669 19.1463V15.5196C74.6636 15.0496 74.2834 14.6696 73.8136 14.6663H72.4003C72.012 14.659 71.6778 14.3906 71.5869 14.0131C71.2708 12.8002 70.7861 11.6379 70.147 10.5598C69.9416 10.2224 69.9909 9.78883 70.267 9.50649L71.2538 8.50649C71.4198 8.34836 71.5138 8.12914 71.5138 7.89977C71.5138 7.67055 71.4198 7.45117 71.2538 7.29305L69.9338 5.97305C70.1455 5.97367 70.3481 5.8868 70.4937 5.73305L71.4937 4.74633C71.6519 4.58023 71.8711 4.48633 72.1005 4.48633C72.3298 4.48633 72.5491 4.58023 72.7072 4.74633L75.2537 7.29305C75.4198 7.45117 75.5138 7.67039 75.5138 7.89977C75.5138 8.12899 75.4198 8.34836 75.2537 8.50649L74.267 9.50649C73.9909 9.78899 73.9416 10.2226 74.147 10.5598C74.7861 11.6379 75.2708 12.8004 75.587 14.0131C75.678 14.3906 76.0123 14.659 76.4005 14.6663H77.8139C78.2836 14.6695 78.6636 15.0496 78.6669 15.5196Z" fill="#FFDE55"/>
<path d="M34.6668 77.334C33.9304 77.334 33.3335 77.931 33.3335 78.6673C33.3335 79.4037 33.9305 80.0005 34.6668 80.0005H45.3335C46.0699 80.0005 46.6668 79.4035 46.6668 78.6673C46.6668 77.9309 46.0698 77.334 45.3335 77.334H34.6668Z" fill="#142537"/>
<path d="M28.1486 55.4197C27.5485 59.1326 28.7285 62.9117 31.3349 65.6234C32.6294 66.9823 33.346 68.7908 33.3335 70.6677C33.3358 72.8758 35.1253 74.6653 37.3335 74.6677H42.6667C44.8749 74.6653 46.6644 72.8758 46.6667 70.6677C46.6419 68.81 47.3436 67.0159 48.6225 65.6683C50.8925 63.3251 52.1094 60.1581 51.9924 56.898C51.8755 53.6378 50.4347 50.5661 48.0027 48.3916C44.7335 45.4655 40.1283 44.5562 35.9924 46.0201C31.8564 47.4844 28.8488 51.0884 28.1486 55.4197ZM40.0119 48.0005C42.306 47.9933 44.5203 48.8412 46.2228 50.3786C48.1147 52.0687 49.2358 54.457 49.3274 56.9922C49.4191 59.5273 48.4733 61.9905 46.7085 63.8128C44.9453 65.6566 43.9733 68.1167 44.0002 70.6677C43.9994 71.4037 43.403 72.0003 42.6669 72.0009H37.3336C36.5972 71.9998 36.0006 71.4027 36.0003 70.6662C36.0141 68.1017 35.0314 65.6322 33.2594 63.7783C30.8056 61.2209 30.0141 57.4934 31.2169 54.1597C32.4197 50.8259 35.4088 48.4623 38.93 48.0608C39.2891 48.0208 39.6503 48.0006 40.0119 48.0005Z" fill="#142537"/>
<path d="M62.6668 8C57.5121 8 53.3335 12.1788 53.3335 17.3333C53.3335 22.4878 57.5122 26.6666 62.6668 26.6666C67.8213 26.6666 72.0001 22.4878 72.0001 17.3333C71.9941 12.1811 67.819 8.00594 62.6668 8ZM62.6668 24C58.9849 24 56.0001 21.0152 56.0001 17.3333C56.0001 13.6514 58.9849 10.6666 62.6668 10.6666C66.3487 10.6666 69.3335 13.6514 69.3335 17.3333C69.3291 21.0134 66.3469 23.9956 62.6668 24Z" fill="#142537"/>
<path d="M77.8073 13.3334H76.78C76.4675 12.2368 76.0283 11.1806 75.4714 10.1856L76.2006 9.45575C77.0561 8.59918 77.0561 7.21153 76.2006 6.35481L73.6459 3.7995C72.7786 2.96981 71.412 2.9695 70.5444 3.79887L69.8139 4.52871C68.8197 3.97106 67.7633 3.53215 66.6667 3.22075V2.19278C66.6655 0.982307 65.6845 0.00121256 64.4741 0.000118811H60.8595C59.649 0.00136881 58.668 0.982307 58.6669 2.19278V3.22075C57.5703 3.53231 56.514 3.97137 55.5197 4.52871L54.788 3.79762C53.9203 2.97059 52.5559 2.97106 51.689 3.79903L49.1331 6.35497C48.2776 7.21153 48.2776 8.59919 49.1331 9.4559L49.8623 10.1858C49.3054 11.1806 48.8662 12.237 48.5537 13.3334H47.5264C46.3159 13.3347 45.335 14.3156 45.3337 15.5261V16H34.5995C33.8937 6.80231 26.1048 -0.229725 16.8829 0.00574381C7.66105 0.241213 0.241049 7.66122 0.00573643 16.8829C-0.229576 26.1047 6.8023 33.8937 16.0001 34.5992V54.6667C16.0025 56.8748 17.792 58.6644 20.0001 58.6667H24.0001C24.7365 58.6667 25.3334 58.0698 25.3334 57.3334C25.3334 56.597 24.7364 56.0001 24.0001 56.0001H20.0001C19.264 55.9994 18.6675 55.403 18.6668 54.6669V34.5992C27.175 33.9333 33.9334 27.175 34.5993 18.6667H45.3336V19.1406C45.3348 20.3511 46.3158 21.3322 47.5262 21.3333H48.5536C48.8661 22.4298 49.3053 23.4861 49.8622 24.4811L49.1329 25.2109C48.2775 26.0675 48.2775 27.4551 49.1329 28.3118L51.6876 30.8672C52.555 31.6969 53.9215 31.697 54.7892 30.8678L55.5197 30.1379C56.5139 30.6956 57.5703 31.1345 58.6669 31.4459V32.4739C58.6681 33.6844 59.649 34.6654 60.8595 34.6665H61.3334V54.6665C61.3326 55.4026 60.7362 55.9992 60.0001 55.9998H56.0001C55.2637 55.9998 54.6669 56.5967 54.6669 57.3331C54.6669 58.0695 55.2637 58.6664 56.0001 58.6664H60.0001C62.2083 58.6641 63.9978 56.8745 64.0001 54.6664V34.6664H64.4741C65.6845 34.6651 66.6656 33.6842 66.6667 32.4737V31.4458C67.7633 31.1345 68.8197 30.6954 69.8139 30.1378L70.5456 30.8689C71.4133 31.6959 72.7776 31.6954 73.6445 30.8675L76.2005 28.3115C77.0559 27.455 77.0559 26.0673 76.2005 25.2106L75.4712 24.4808C76.0281 23.4859 76.4673 22.4295 76.7798 21.3329H77.8072C79.0177 21.3317 79.9986 20.3508 79.9998 19.1403V15.5261C79.9989 14.3156 79.018 13.3347 77.8073 13.3334ZM17.3334 32.0001C9.23324 32.0001 2.66668 25.4336 2.66668 17.3334C2.66668 9.23325 9.23324 2.66668 17.3334 2.66668C25.4336 2.66668 32.0001 9.23325 32.0001 17.3334C31.9909 25.4298 25.4298 31.9909 17.3334 32.0001ZM77.3334 18.6667H76.4064C75.405 18.6726 74.5342 19.3551 74.2892 20.3262C74.008 21.417 73.5736 22.4623 72.9989 23.4311C72.4834 24.2909 72.6164 25.3908 73.3219 26.1029L73.9808 26.7611L72.0941 28.6472L71.4378 27.9903C70.7261 27.2831 69.625 27.1492 68.7647 27.6654C67.7966 28.24 66.7519 28.6744 65.6619 28.9558C64.6892 29.1992 64.0053 30.0709 64.0003 31.0736V32H61.3336V31.0736C61.3289 30.0714 60.6455 29.2 59.6734 28.9564C58.5834 28.6748 57.5387 28.2404 56.5706 27.6661C55.7108 27.1486 54.6092 27.2815 53.8975 27.989L53.24 28.6472L51.3533 26.7611L52.0122 26.1029C52.7176 25.3908 52.8505 24.2909 52.3351 23.4311C51.7603 22.4622 51.3259 21.4165 51.0448 20.3256C50.7995 19.3548 49.9289 18.6726 48.9276 18.6667H48.0006V16H48.9276C49.929 15.994 50.7998 15.3115 51.0448 14.3404C51.3261 13.2497 51.7605 12.2043 52.3353 11.2356C52.8508 10.3757 52.7178 9.2759 52.0123 8.56372L51.3534 7.90559L53.2401 6.0195L53.8964 6.67637C54.608 7.38387 55.7092 7.51778 56.5695 7.00122C57.5376 6.42668 58.5823 5.99231 59.6723 5.7109C60.645 5.46746 61.3289 4.59575 61.3337 3.59309V2.66668H64.0005V3.59309C64.0051 4.59528 64.6886 5.46668 65.6606 5.71028C66.7515 5.99215 67.797 6.427 68.7661 7.002C69.6259 7.51653 70.725 7.38309 71.4367 6.67778L72.0942 6.01965L73.9809 7.90575L73.322 8.56387C72.6166 9.27606 72.4837 10.3759 72.9992 11.2357C73.5741 12.2047 74.0084 13.2503 74.2895 14.3412C74.5348 15.312 75.4055 15.9942 76.4067 16.0001H77.3337V18.6667H77.3334Z" fill="#142537"/>
<path d="M62.6668 18.6666C63.4031 18.6666 64.0001 18.0696 64.0001 17.3333C64.0001 16.5969 63.4031 16 62.6668 16C61.9304 16 61.3335 16.5969 61.3335 17.3333C61.3335 18.0696 61.9304 18.6666 62.6668 18.6666Z" fill="#142537"/>
<path d="M17.3335 5.33398C10.7062 5.33398 5.3335 10.7066 5.3335 17.334C5.3335 23.9613 10.7062 29.334 17.3335 29.334C23.9608 29.334 29.3335 23.9613 29.3335 17.334C29.326 10.7096 23.9579 5.34148 17.3335 5.33398ZM17.3335 26.6673C12.1788 26.6673 8.00022 22.4885 8.00022 17.334C8.00022 12.1795 12.179 8.0007 17.3335 8.0007C22.488 8.0007 26.6668 12.1795 26.6668 17.334C26.6609 22.4862 22.4857 26.6613 17.3335 26.6673Z" fill="#142537"/>
<path d="M18.6666 16.7806V11.9993C18.6666 11.2629 18.0695 10.666 17.3333 10.666C16.5969 10.666 16 11.2629 16 11.9993V17.3326C16.0002 17.6862 16.1406 18.0252 16.3906 18.2752L19.0573 20.942C19.5794 21.4546 20.4169 21.4507 20.9342 20.9335C21.4516 20.4162 21.4553 19.5787 20.9427 19.0566L18.6666 16.7806Z" fill="#142537"/>
<path d="M41.3336 41.3333V37.3333C41.3336 36.5969 40.7365 36 40.0003 36C39.2639 36 38.667 36.597 38.667 37.3333V41.3333C38.667 42.0697 39.264 42.6666 40.0003 42.6666C40.7367 42.6666 41.3336 42.0697 41.3336 41.3333Z" fill="#142537"/>
<path d="M26.8009 42.2496C26.4643 41.9117 25.9729 41.7796 25.5123 41.9027C25.0517 42.0258 24.6918 42.3856 24.5687 42.8463C24.4456 43.3069 24.5778 43.7983 24.9156 44.1349L27.7437 46.963C28.0806 47.2997 28.5714 47.4313 29.0315 47.308C29.4915 47.1847 29.8509 46.8253 29.9742 46.3653C30.0974 45.9053 29.9659 45.4144 29.6292 45.0775L26.8009 42.2496Z" fill="#142537"/>
<path d="M55.0849 42.248C54.8349 41.9979 54.4958 41.8574 54.1422 41.8574C53.7886 41.8574 53.4494 41.9979 53.1996 42.248L50.3714 45.0762C50.0346 45.413 49.9032 45.9038 50.0264 46.364C50.1497 46.824 50.5091 47.1834 50.9691 47.3066C51.4291 47.4299 51.92 47.2984 52.2569 46.9616L55.085 44.1335C55.3352 43.8835 55.4757 43.5445 55.4757 43.1909C55.4757 42.8373 55.335 42.498 55.0849 42.248Z" fill="#142537"/>
<path d="M24.9152 72.4185C25.1652 72.6687 25.5043 72.8091 25.8579 72.8091C26.2114 72.8091 26.5507 72.6687 26.8005 72.4185L29.6286 69.5904C29.9655 69.2535 30.0969 68.7627 29.9736 68.3026C29.8504 67.8426 29.491 67.4832 29.031 67.3599C28.571 67.2366 28.08 67.3682 27.7432 67.7049L24.915 70.533C24.6649 70.783 24.5244 71.1221 24.5244 71.4757C24.5244 71.8293 24.665 72.1685 24.9152 72.4185Z" fill="#142537"/>
<path d="M50.3711 67.7051C50.1209 67.9551 49.9805 68.2941 49.9805 68.6477C49.9805 69.0013 50.1209 69.3404 50.3711 69.5904L53.1992 72.4185C53.7202 72.9376 54.563 72.937 55.083 72.417C55.603 71.897 55.6038 71.0541 55.0845 70.5332L52.2564 67.7051C52.0064 67.4549 51.6673 67.3145 51.3137 67.3145C50.9602 67.3145 50.6211 67.4549 50.3711 67.7051Z" fill="#142537"/>
</svg>
