<svg width="63" height="80" viewBox="0 0 63 80" fill="none" xmlns="http://www.w3.org/2000/svg">
<path d="M38.666 66.6654L37.3327 57.332C43.224 57.332 47.9994 62.1074 47.9994 67.9987V78.6654H30.666V65.332L38.666 66.6654Z" fill="#FF4768"/>
<path d="M37.3327 57.332L38.666 66.6654L30.666 65.332L37.3327 57.332Z" fill="#FF4768"/>
<path d="M23.9994 57.332L30.666 65.332L22.666 66.6654L23.9994 57.332Z" fill="#FF4768"/>
<path d="M19.9992 78.6654H13.3325V67.9987C13.3325 62.1074 18.1086 57.332 23.9992 57.332L22.6659 66.6654L30.6659 65.332V78.6654H19.9992Z" fill="#FF4768"/>
<path d="M61.333 18.668H57.333V34.668H49.333V18.668H45.333L53.333 10.668L61.333 18.668Z" fill="#FFDE55"/>
<path d="M38.6665 9.33399H34.6665V17.334H26.6665V9.33399H22.6665L30.6665 1.33398L38.6665 9.33399Z" fill="#FFDE55"/>
<path d="M17.333 26.668H13.333V42.668H5.33301V26.668H1.33301L9.33301 18.668L17.333 26.668Z" fill="#FFDE55"/>
<path d="M37.3329 56H23.9995C17.3752 56.0072 12.0073 61.3757 11.9995 68V78.6667C11.9995 79.403 12.5965 80 13.3328 80H47.9995C48.7359 80 49.3329 79.403 49.3329 78.6667V68C49.3257 61.3757 43.9572 56.0072 37.3329 56ZM37.0881 65.0514L33.1799 64.3997L36.437 60.4889L37.0881 65.0514ZM34.4852 58.6667L30.6662 63.2494L26.8478 58.6667H34.4852ZM24.896 60.4902L28.1532 64.3997L24.245 65.0501L24.896 60.4902ZM14.6662 68C14.6746 63.4512 17.9585 59.5697 22.4422 58.8079L21.3465 66.4772C21.286 66.8978 21.4305 67.3223 21.7345 67.6192C22.0386 67.9167 22.4657 68.0508 22.8849 67.9811L29.3329 66.9063V77.3334H21.3329V68H18.6662V77.3334H14.6662V68ZM46.6662 77.3334H42.6662V68H39.9995V77.3334H31.9995V66.9063L38.4475 67.9811C38.8674 68.0508 39.2945 67.9167 39.5985 67.6192C39.9025 67.3223 40.0464 66.8978 39.9865 66.4772L38.8902 58.8079C43.3752 59.5697 46.6584 63.4512 46.6662 68V77.3334Z" fill="#142537"/>
<path d="M39.9995 46.666V42.666C40.7359 42.666 41.3329 42.069 41.3329 41.3327C41.3329 35.4414 36.5575 30.666 30.6662 30.666C24.7756 30.666 19.9995 35.4414 19.9995 41.3327C19.9995 42.069 20.5965 42.666 21.3328 42.666V46.666C21.3328 51.8203 25.5119 55.9994 30.6662 55.9994C35.8211 55.9994 39.9995 51.8203 39.9995 46.666ZM30.6662 33.3327C34.4774 33.3379 37.758 36.026 38.5119 39.7617C36.8745 39.1263 35.4598 38.0241 34.4422 36.5925C34.2209 36.2604 33.8622 36.0449 33.465 36.0059C33.4194 36.0059 33.3758 36.0059 33.3316 36.0059C32.978 36.0059 32.6388 36.1465 32.3888 36.3965C30.9331 37.847 26.2957 39.0925 22.8263 39.7324C23.5913 36.0098 26.8661 33.3366 30.6662 33.3327ZM30.6662 53.3327C26.9865 53.3281 24.0041 50.3457 23.9995 46.666L23.9904 42.2272C27.174 41.707 30.2528 40.6797 33.1102 39.183C34.2652 40.4922 35.7118 41.5117 37.3329 42.1589V46.666C37.329 50.3457 34.3465 53.3281 30.6662 53.3327Z" fill="#142537"/>
<path d="M14.114 25.332H13.3327C12.5964 25.332 11.9994 25.9284 11.9994 26.6654V42.6654H14.6661V27.9987H17.3327C17.8724 27.9981 18.3581 27.6732 18.5645 27.1751C18.7709 26.6771 18.6569 26.1035 18.2754 25.7227L10.2754 17.7227C9.75525 17.2018 8.91084 17.2018 8.39001 17.7227L0.390002 25.7227C0.00914249 26.1035 -0.10479 26.6771 0.10159 27.1751C0.307971 27.6732 0.793648 27.9981 1.33271 27.9987H3.99938V42.6654H6.66605V26.6654C6.66605 25.9284 6.06904 25.332 5.33272 25.332H4.55146L9.33272 20.5501L14.114 25.332Z" fill="#142537"/>
<path d="M22.6662 10.6667H25.3329V14.6667H27.9995V9.33334C27.9995 8.59636 27.4025 8.00001 26.6662 8.00001H25.885L30.6662 3.2181L35.4475 8.00001H34.6662C33.9299 8.00001 33.3329 8.59636 33.3329 9.33334V17.3333H35.9996V10.6667H38.6662C39.2059 10.666 39.6916 10.3412 39.898 9.84311C40.1044 9.34506 39.9904 8.77149 39.6089 8.39063L31.6089 0.390625C31.0887 -0.130208 30.2443 -0.130208 29.7235 0.390625L21.7235 8.39063C21.3426 8.77149 21.2287 9.34506 21.4351 9.84311C21.6415 10.3412 22.1271 10.666 22.6662 10.6667Z" fill="#142537"/>
<path d="M62.2754 17.7246L54.2754 9.72461C53.7552 9.20378 52.9108 9.20378 52.39 9.72461L44.39 17.7246C44.0091 18.1055 43.8952 18.679 44.1016 19.1771C44.308 19.6751 44.7936 20 45.3327 20.0007H47.9994V34.6673H50.666V18.6673C50.666 17.9303 50.069 17.334 49.3327 17.334H48.5515L53.3327 12.5521L58.114 17.334H57.3327C56.5964 17.334 55.9994 17.9303 55.9994 18.6673V34.6673H58.6661V20.0007H61.3327C61.8724 20 62.3581 19.6751 62.5645 19.1771C62.7709 18.679 62.6569 18.1055 62.2754 17.7246Z" fill="#142537"/>
<path d="M25.3325 17.332H27.9992V22.6654H25.3325V17.332Z" fill="#142537"/>
<path d="M33.333 20H35.9997V22.6667H33.333V20Z" fill="#142537"/>
<path d="M33.333 25.334H35.9997V28.0007H33.333V25.334Z" fill="#142537"/>
<path d="M25.3325 25.334H27.9992V28.0007H25.3325V25.334Z" fill="#142537"/>
<path d="M47.9995 37.332H50.6662V42.6654H47.9995V37.332Z" fill="#142537"/>
<path d="M55.9995 40H58.6662V42.6667H55.9995V40Z" fill="#142537"/>
<path d="M3.99951 45.334H6.66618V48.0007H3.99951V45.334Z" fill="#142537"/>
<path d="M11.9995 45.334H14.6662V50.6673H11.9995V45.334Z" fill="#142537"/>
<path d="M11.9995 53.332H14.6662V55.9987H11.9995V53.332Z" fill="#142537"/>
<path d="M3.99951 50.666H6.66618V53.3327H3.99951V50.666Z" fill="#142537"/>
<path d="M55.9995 45.334H58.6662V48.0007H55.9995V45.334Z" fill="#142537"/>
<path d="M55.9995 50.666H58.6662V53.3327H55.9995V50.666Z" fill="#142537"/>
</svg>
