<svg width="16" height="16" viewBox="0 0 16 16" fill="none" xmlns="http://www.w3.org/2000/svg">
<path d="M15.5 4.49075C15.5003 3.60263 15.2043 2.7398 14.6588 2.03896C14.1133 1.33811 13.3495 0.839347 12.4885 0.621676C11.6274 0.404005 10.7184 0.479879 9.90534 0.837278C9.0923 1.19468 8.42178 1.81316 8 2.59474C7.57822 1.81316 6.9077 1.19468 6.09466 0.837278C5.28163 0.479879 4.37258 0.404005 3.51155 0.621676C2.65052 0.839347 1.88674 1.33811 1.34123 2.03896C0.795719 2.7398 0.499676 3.60263 0.5 4.49075C0.5 5.43842 0.832158 6.30745 1.38395 6.99211L1.38259 6.99346L8 15.1944L14.6167 6.99346L14.6154 6.99211C15.1883 6.2844 15.5006 5.4013 15.5 4.49075V4.49075Z" stroke="#FF4768" stroke-miterlimit="10" stroke-linejoin="round"/>
</svg>
