<svg width="80" height="80" viewBox="0 0 80 80" fill="none" xmlns="http://www.w3.org/2000/svg">
<path d="M73.5496 59.3555H6.45279C3.60247 59.3555 1.2915 57.0446 1.2915 54.1942V6.45231C1.2915 3.60198 3.60247 1.29102 6.45279 1.29102H73.5496C76.3999 1.29102 78.7109 3.60198 78.7109 6.45231V54.1942C78.7109 57.0446 76.3999 59.3555 73.5496 59.3555Z" fill="#FF4768"/>
<path d="M6.45264 43.8725V7.74345C6.45264 7.03119 7.0307 6.45312 7.74296 6.45312H72.2591C72.9713 6.45312 73.5494 7.03119 73.5494 7.74345V43.8725" fill="white"/>
<path d="M59.3562 78.7107H20.6465V76.13C20.6465 73.2797 22.9575 70.9688 25.8078 70.9688H54.1949C57.0452 70.9688 59.3562 73.2797 59.3562 76.13V78.7107Z" fill="#FF4768"/>
<path d="M78.7109 43.873V54.1956C78.7109 57.0459 76.3999 59.3569 73.5496 59.3569H6.45279C3.60247 59.3569 1.2915 57.0459 1.2915 54.1956V43.873H78.7109Z" fill="#FF4768"/>
<path d="M40.0011 54.1945C41.4263 54.1945 42.5817 53.0391 42.5817 51.6138C42.5817 50.1886 41.4263 49.0332 40.0011 49.0332C38.5758 49.0332 37.4204 50.1886 37.4204 51.6138C37.4204 53.0391 38.5758 54.1945 40.0011 54.1945Z" fill="white"/>
<path d="M32.1679 70.9725C33.0466 69.4538 33.5498 67.6899 33.5498 65.8086C33.5498 63.3144 32.6646 61.0267 31.1924 59.2422H48.893C47.475 61.0099 46.453 63.3673 46.453 65.8086C46.453 67.6899 46.9563 69.4525 47.835 70.9712L32.1679 70.9725Z" fill="white"/>
<path d="M20.6464 29.6778L18.0657 32.2584L21.9367 36.1294L24.5173 33.5488L27.098 34.8391V37.4197H32.2593V34.8391L34.8399 33.5488L37.4206 36.1294L41.2915 32.2584L38.7109 29.6778L40.0012 27.0972H42.5818V21.9359H40.0012L38.7109 19.3552L41.2915 16.7746L37.4206 12.9036L34.8399 15.4842L32.2593 14.1939V11.6133H27.098V14.1939L24.5173 15.4842L21.9367 12.9036L18.0657 16.7746L20.6464 19.3552L19.356 21.9359H16.7754V27.0972H19.356L20.6464 29.6778Z" fill="#FFDE55"/>
<path d="M29.6789 29.678C32.5294 29.678 34.8402 27.3673 34.8402 24.5168C34.8402 21.6663 32.5294 19.3555 29.6789 19.3555C26.8284 19.3555 24.5176 21.6663 24.5176 24.5168C24.5176 27.3673 26.8284 29.678 29.6789 29.678Z" fill="#EBF7FE"/>
<path d="M73.5496 27.098H61.4799C60.5638 29.7057 58.3019 31.7251 55.5561 32.1612C52.2412 32.6876 49.2464 31.0322 47.7432 28.3883H47.7445H50.3238C52.4619 28.3883 54.1948 26.6554 54.1948 24.5173C54.1948 22.3793 52.4619 20.6464 50.3238 20.6464H47.7445L47.7432 20.6451C49.058 18.3315 51.5161 16.7754 54.3303 16.7754C57.6412 16.7754 60.4503 18.9315 61.4954 21.9367H73.5496" fill="#FFDE55"/>
<path d="M73.5497 0H6.45161C2.89419 0 0 2.89419 0 6.45161V54.1935C0 57.751 2.89419 60.6452 6.45161 60.6452H30.5974C31.6542 62.1561 32.2581 63.9523 32.2581 65.8064C32.2581 67.1523 31.9406 68.471 31.3677 69.6774H25.8077C22.249 69.6774 19.3561 72.5716 19.3561 76.129V78.7097C19.3561 79.4232 19.9329 80 20.6465 80H59.3548C60.0684 80 60.6452 79.4232 60.6452 78.7097V76.129C60.6452 72.5716 57.7523 69.6774 54.1935 69.6774H48.6323C48.0594 68.4735 47.7432 67.1535 47.7432 65.8077C47.7432 63.9264 48.3303 62.1639 49.3974 60.6465H73.5497C77.1071 60.6465 80.0013 57.7523 80.0013 54.1948V6.4529C80.0013 2.89419 77.1071 0 73.5497 0ZM6.45161 2.58065H73.5497C75.6826 2.58065 77.4206 4.31742 77.4206 6.45161V42.5806H74.8387V7.74323C74.8387 6.32 73.6826 5.16258 72.2581 5.16258H7.74323C6.31871 5.16258 5.16258 6.31871 5.16258 7.74323V42.5819H2.58065V6.4529C2.58065 4.31742 4.31871 2.58065 6.45161 2.58065ZM50.5394 19.36C51.6181 18.5342 52.9445 18.0658 54.329 18.0658C56.991 18.0658 59.3819 19.7923 60.2748 22.3613C60.4581 22.8787 60.9458 23.2271 61.4955 23.2271H72.2581V25.8077H61.4787C60.9316 25.8077 60.4426 26.1535 60.2619 26.6697C59.4852 28.8813 57.5587 30.5368 55.3535 30.8877C53.6064 31.1665 51.8748 30.7071 50.5329 29.6748C53.2813 29.5652 55.4852 27.2942 55.4852 24.5174C55.4839 21.7445 53.2852 19.4748 50.5394 19.36ZM72.2581 20.6465H62.3613C60.9006 17.5252 57.7794 15.4852 54.329 15.4852C51.1587 15.4852 48.2052 17.2181 46.6181 20.0077C46.4426 20.3161 46.4039 20.6826 46.5071 21.0219C46.609 21.3613 46.849 21.6426 47.1665 21.8013C47.3458 21.889 47.5445 21.9368 47.7432 21.9368H50.3226C51.7458 21.9368 52.9032 23.0942 52.9032 24.5174C52.9032 25.9406 51.7458 27.0981 50.3226 27.0981H47.7419C47.2839 27.0981 46.8581 27.3419 46.6271 27.7394C46.3961 28.1368 46.3935 28.6271 46.6206 29.0258C48.2361 31.8697 51.1613 33.5497 54.3303 33.5497C54.8013 33.5497 55.2787 33.5123 55.7561 33.4361C58.6335 32.9794 61.0864 31.0761 62.3419 28.3884H72.2568V42.5819H7.74323V7.74323H72.2581V20.6465ZM58.0645 76.129V77.4193H21.9368V76.129C21.9368 73.9948 23.6735 72.2581 25.8077 72.2581H54.1935C56.3277 72.2594 58.0645 73.9948 58.0645 76.129ZM45.849 69.6787H34.1497C34.5884 68.4387 34.8374 67.1342 34.8374 65.8077C34.8374 64.0077 34.4077 62.2413 33.6155 60.6465H46.3832C45.5935 62.2413 45.1626 64.009 45.1626 65.8077C45.1626 67.1342 45.4116 68.4387 45.849 69.6787ZM73.5497 58.0658H6.45161C4.31871 58.0658 2.58065 56.329 2.58065 54.1948V45.1626H77.4206V54.1948C77.4206 56.3277 75.6826 58.0658 73.5497 58.0658Z" fill="#142537"/>
<path d="M40.0013 47.7441C37.8671 47.7441 36.1304 49.4809 36.1304 51.6151C36.1304 53.7493 37.8671 55.4861 40.0013 55.4861C42.1342 55.4861 43.871 53.7493 43.871 51.6151C43.871 49.4796 42.1342 47.7441 40.0013 47.7441ZM40.0013 52.9041C39.2891 52.9041 38.711 52.3261 38.711 51.6138C38.711 50.9016 39.2891 50.3235 40.0013 50.3235C40.7123 50.3235 41.2904 50.9016 41.2904 51.6138C41.2904 52.3261 40.7123 52.9041 40.0013 52.9041Z" fill="#142537"/>
<path d="M16.7757 28.3874H18.5589L19.0763 29.4236L17.1524 31.3462C16.6492 31.8507 16.6492 32.6674 17.1524 33.172L21.0234 37.0429C21.5279 37.5462 22.3447 37.5487 22.8492 37.0429L24.7718 35.1191L25.8079 35.6365V37.4197C25.8079 38.1333 26.3847 38.71 27.0983 38.71H32.2583C32.9718 38.71 33.5486 38.1333 33.5486 37.4197V35.6365L34.5847 35.1191L36.5073 37.0429C37.0131 37.5487 37.8299 37.5462 38.3331 37.0429L42.2041 33.172C42.7073 32.6674 42.7073 31.8507 42.2041 31.3462L40.2802 29.4236L40.7976 28.3874H42.5808C43.2944 28.3874 43.8712 27.8107 43.8712 27.0971V21.9358C43.8712 21.2223 43.2944 20.6455 42.5808 20.6455H40.7976L40.2802 19.6094L42.2041 17.6868C42.7073 17.1823 42.7073 16.3655 42.2041 15.861L38.3331 11.99C37.8299 11.4868 37.0131 11.4855 36.5073 11.99L34.5847 13.9139L33.5486 13.3965V11.6145C33.5486 10.901 32.9718 10.3242 32.2583 10.3242H27.0983C26.3847 10.3242 25.8079 10.901 25.8079 11.6145V13.3978L24.7718 13.9152L22.8492 11.9913C22.3447 11.4868 21.5279 11.4881 21.0234 11.9913L17.1524 15.8623C16.6492 16.3668 16.6492 17.1836 17.1524 17.6881L19.0763 19.6107L18.5589 20.6468H16.7757C16.0621 20.6468 15.4854 21.2236 15.4854 21.9371V27.0984C15.4854 27.8107 16.0621 28.3874 16.7757 28.3874ZM18.066 23.2274H19.3563C19.8441 23.2274 20.2918 22.9513 20.5099 22.5139L21.8002 19.9333C22.0492 19.4365 21.9512 18.8365 21.5589 18.4442L19.8905 16.7758L21.937 14.7294L23.6041 16.3978C23.9976 16.79 24.5989 16.892 25.0931 16.6391L27.6737 15.3487C28.1112 15.1294 28.3886 14.6829 28.3886 14.1952V12.9049H30.9679V14.1952C30.9679 14.6829 31.2454 15.1307 31.6828 15.3487L34.2634 16.6391C34.7615 16.892 35.3615 16.79 35.7524 16.3978L37.4195 14.7294L39.466 16.7758L37.7976 18.4429C37.4054 18.8365 37.3073 19.4365 37.5563 19.932L38.8466 22.5126C39.0647 22.95 39.5124 23.2274 40.0002 23.2274H41.2905V25.8081H40.0002C39.5124 25.8081 39.0647 26.0842 38.8466 26.5216L37.5563 29.1023C37.3073 29.5991 37.4054 30.1991 37.7976 30.5913L39.466 32.2584L37.4195 34.3049L35.7524 32.6365C35.3602 32.2455 34.7602 32.1474 34.2634 32.3952L31.6828 33.6855C31.2454 33.9036 30.9679 34.3513 30.9679 34.8391V36.1294H28.3886V34.8391C28.3886 34.3513 28.1112 33.9036 27.6737 33.6855L25.0931 32.3952C24.5989 32.1474 23.9963 32.2455 23.6041 32.6365L21.937 34.3049L19.8905 32.2584L21.5589 30.5913C21.9512 30.1978 22.0492 29.5978 21.8002 29.1023L20.5099 26.5216C20.2918 26.0842 19.8441 25.8081 19.3563 25.8081H18.066V23.2274Z" fill="#142537"/>
<path d="M29.6787 30.9677C33.2361 30.9677 36.129 28.0735 36.129 24.5161C36.129 20.9586 33.2361 18.0645 29.6787 18.0645C26.12 18.0645 23.2271 20.9586 23.2271 24.5161C23.2271 28.0735 26.12 30.9677 29.6787 30.9677ZM29.6787 20.6464C31.8116 20.6464 33.5483 22.3832 33.5483 24.5174C33.5483 26.6516 31.8116 28.3883 29.6787 28.3883C27.5445 28.3883 25.8077 26.6516 25.8077 24.5174C25.8077 22.3819 27.5445 20.6464 29.6787 20.6464Z" fill="#142537"/>
</svg>
